<svg width="149" height="20" viewBox="0 0 149 20" fill="none" xmlns="http://www.w3.org/2000/svg">
<path d="M0.215492 0.853774H4.9606L9.97229 13.0809H10.1856L15.1972 0.853774H19.9424V19.0522H16.2102V7.20724H16.0592L11.3496 18.9634H8.80823L4.09866 7.16281H3.9476V19.0522H0.215492V0.853774ZM27.4605 0.853774V19.0522H23.6129V0.853774H27.4605ZM46.3483 0.853774V19.0522H43.0249L35.1075 7.59823H34.9742V19.0522H31.1266V0.853774H34.5033L42.3585 12.2989H42.5184V0.853774H46.3483ZM49.3346 4.02607V0.853774H64.2808V4.02607H58.7093V19.0522H54.9061V4.02607H49.3346ZM70.5305 0.853774L74.929 14.6803H75.0978L79.5053 0.853774H83.7706L77.4971 19.0522H72.5387L66.2563 0.853774H70.5305ZM86.4614 19.0522V0.853774H98.724V4.02607H90.309V8.36242H98.0931V11.5347H90.309V15.88H98.7596V19.0522H86.4614ZM102.284 19.0522V0.853774H109.463C110.838 0.853774 112.011 1.09962 112.982 1.59131C113.96 2.07708 114.703 2.76722 115.213 3.66174C115.728 4.55034 115.986 5.59592 115.986 6.79849C115.986 8.00698 115.725 9.04664 115.204 9.91747C114.682 10.7824 113.927 11.4459 112.938 11.9079C111.954 12.37 110.764 12.601 109.366 12.601H104.558V9.50871H108.744C109.478 9.50871 110.088 9.408 110.574 9.20659C111.06 9.00517 111.421 8.70305 111.658 8.30022C111.901 7.89739 112.023 7.39681 112.023 6.79849C112.023 6.19424 111.901 5.68478 111.658 5.2701C111.421 4.85542 111.057 4.54145 110.565 4.32819C110.079 4.109 109.466 3.99941 108.726 3.99941H106.131V19.0522H102.284ZM112.111 10.7705L116.634 19.0522H112.387L107.962 10.7705H112.111ZM129.078 6.08761C129.006 5.37081 128.701 4.81396 128.162 4.41705C127.623 4.02014 126.892 3.82169 125.967 3.82169C125.34 3.82169 124.809 3.91055 124.377 4.08827C123.944 4.26006 123.613 4.49999 123.382 4.80803C123.157 5.11608 123.044 5.46559 123.044 5.85658C123.032 6.1824 123.1 6.46675 123.248 6.70963C123.402 6.95251 123.613 7.16282 123.879 7.34053C124.146 7.51233 124.454 7.66339 124.803 7.79372C125.153 7.91812 125.526 8.02475 125.923 8.11361L127.558 8.5046C128.352 8.68232 129.081 8.91928 129.744 9.21547C130.407 9.51167 130.982 9.876 131.468 10.3084C131.954 10.7409 132.33 11.2504 132.596 11.8368C132.869 12.4233 133.008 13.0957 133.014 13.854C133.008 14.9677 132.724 15.9333 132.161 16.7508C131.604 17.5624 130.798 18.1933 129.744 18.6435C128.695 19.0878 127.431 19.3099 125.95 19.3099C124.481 19.3099 123.201 19.0848 122.111 18.6346C121.027 18.1844 120.18 17.5179 119.57 16.6353C118.965 15.7467 118.648 14.6478 118.619 13.3386H122.342C122.383 13.9487 122.558 14.4582 122.866 14.867C123.18 15.2698 123.598 15.5749 124.119 15.7822C124.646 15.9836 125.242 16.0843 125.905 16.0843C126.557 16.0843 127.123 15.9895 127.602 15.8C128.088 15.6104 128.464 15.3468 128.731 15.0091C128.998 14.6715 129.131 14.2834 129.131 13.8451C129.131 13.4363 129.009 13.0927 128.767 12.8143C128.53 12.5359 128.18 12.2989 127.718 12.1034C127.262 11.9079 126.702 11.7302 126.039 11.5703L124.057 11.0726C122.523 10.6994 121.311 10.1159 120.423 9.32211C119.534 8.52829 119.093 7.45901 119.099 6.11427C119.093 5.01241 119.386 4.04976 119.978 3.22633C120.577 2.4029 121.397 1.76014 122.44 1.29807C123.482 0.836002 124.667 0.604967 125.994 0.604967C127.345 0.604967 128.524 0.836002 129.531 1.29807C130.544 1.76014 131.332 2.4029 131.894 3.22633C132.457 4.04976 132.747 5.00352 132.765 6.08761H129.078ZM136.103 19.0522V0.853774H148.365V4.02607H139.95V8.36242H147.734V11.5347H139.95V15.88H148.401V19.0522H136.103Z" fill="white"/>
<path d="M0.215492 0.853775V-0.188846H-0.827129V0.853775H0.215492ZM4.9606 0.853775L5.92533 0.458349L5.66005 -0.188846H4.9606V0.853775ZM9.97229 13.0809L9.00756 13.4763L9.27284 14.1235H9.97229V13.0809ZM10.1856 13.0809V14.1235H10.885L11.1503 13.4763L10.1856 13.0809ZM15.1972 0.853775V-0.188846H14.4978L14.2325 0.458349L15.1972 0.853775ZM19.9424 0.853775H20.985V-0.188846H19.9424V0.853775ZM19.9424 19.0522V20.0949H20.985V19.0522H19.9424ZM16.2102 19.0522H15.1676V20.0949H16.2102V19.0522ZM16.2102 7.20724H17.2529V6.16462H16.2102V7.20724ZM16.0592 7.20724V6.16462H15.3537L15.0913 6.81952L16.0592 7.20724ZM11.3496 18.9634V20.006H12.0551L12.3175 19.3511L11.3496 18.9634ZM8.80823 18.9634L7.83988 19.3499L8.10175 20.006H8.80823V18.9634ZM4.09866 7.16282L5.06701 6.77635L4.80514 6.12019H4.09866V7.16282ZM3.9476 7.16282V6.12019H2.90498V7.16282H3.9476ZM3.9476 19.0522V20.0949H4.99022V19.0522H3.9476ZM0.215492 19.0522H-0.827129V20.0949H0.215492V19.0522ZM0.215492 1.8964H4.9606V-0.188846H0.215492V1.8964ZM3.99587 1.2492L9.00756 13.4763L10.937 12.6854L5.92533 0.458349L3.99587 1.2492ZM9.97229 14.1235H10.1856V12.0383H9.97229V14.1235ZM11.1503 13.4763L16.162 1.2492L14.2325 0.458349L9.22083 12.6854L11.1503 13.4763ZM15.1972 1.8964H19.9424V-0.188846H15.1972V1.8964ZM18.8997 0.853775V19.0522H20.985V0.853775H18.8997ZM19.9424 18.0096H16.2102V20.0949H19.9424V18.0096ZM17.2529 19.0522V7.20724H15.1676V19.0522H17.2529ZM16.2102 6.16462H16.0592V8.24987H16.2102V6.16462ZM15.0913 6.81952L10.3818 18.5757L12.3175 19.3511L17.027 7.59497L15.0913 6.81952ZM11.3496 17.9208H8.80823V20.006H11.3496V17.9208ZM9.77658 18.5769L5.06701 6.77635L3.13031 7.54928L7.83988 19.3499L9.77658 18.5769ZM4.09866 6.12019H3.9476V8.20544H4.09866V6.12019ZM2.90498 7.16282V19.0522H4.99022V7.16282H2.90498ZM3.9476 18.0096H0.215492V20.0949H3.9476V18.0096ZM1.25811 19.0522V0.853775H-0.827129V19.0522H1.25811ZM27.4605 0.853775H28.5031V-0.188846H27.4605V0.853775ZM27.4605 19.0522V20.0949H28.5031V19.0522H27.4605ZM23.6129 19.0522H22.5703V20.0949H23.6129V19.0522ZM23.6129 0.853775V-0.188846H22.5703V0.853775H23.6129ZM26.4179 0.853775V19.0522H28.5031V0.853775H26.4179ZM27.4605 18.0096H23.6129V20.0949H27.4605V18.0096ZM24.6555 19.0522V0.853775H22.5703V19.0522H24.6555ZM23.6129 1.8964H27.4605V-0.188846H23.6129V1.8964ZM46.3483 0.853775H47.3909V-0.188846H46.3483V0.853775ZM46.3483 19.0522V20.0949H47.3909V19.0522H46.3483ZM43.0249 19.0522L42.1672 19.6451L42.4781 20.0949H43.0249V19.0522ZM35.1075 7.59823L35.9652 7.00538L35.6543 6.55561H35.1075V7.59823ZM34.9742 7.59823V6.55561H33.9316V7.59823H34.9742ZM34.9742 19.0522V20.0949H36.0168V19.0522H34.9742ZM31.1266 19.0522H30.084V20.0949H31.1266V19.0522ZM31.1266 0.853775V-0.188846H30.084V0.853775H31.1266ZM34.5033 0.853775L35.3629 0.26378L35.0522 -0.188846H34.5033V0.853775ZM42.3585 12.2989L41.4988 12.8889L41.8095 13.3415H42.3585V12.2989ZM42.5184 12.2989V13.3415H43.561V12.2989H42.5184ZM42.5184 0.853775V-0.188846H41.4758V0.853775H42.5184ZM45.3056 0.853775V19.0522H47.3909V0.853775H45.3056ZM46.3483 18.0096H43.0249V20.0949H46.3483V18.0096ZM43.8826 18.4594L35.9652 7.00538L34.2498 8.19107L42.1672 19.6451L43.8826 18.4594ZM35.1075 6.55561H34.9742V8.64085H35.1075V6.55561ZM33.9316 7.59823V19.0522H36.0168V7.59823H33.9316ZM34.9742 18.0096H31.1266V20.0949H34.9742V18.0096ZM32.1692 19.0522V0.853775H30.084V19.0522H32.1692ZM31.1266 1.8964H34.5033V-0.188846H31.1266V1.8964ZM33.6436 1.44377L41.4988 12.8889L43.2181 11.7089L35.3629 0.26378L33.6436 1.44377ZM42.3585 13.3415H42.5184V11.2563H42.3585V13.3415ZM43.561 12.2989V0.853775H41.4758V12.2989H43.561ZM42.5184 1.8964H46.3483V-0.188846H42.5184V1.8964ZM49.3346 4.02607H48.292V5.06869H49.3346V4.02607ZM49.3346 0.853775V-0.188846H48.292V0.853775H49.3346ZM64.2808 0.853775H65.3234V-0.188846H64.2808V0.853775ZM64.2808 4.02607V5.06869H65.3234V4.02607H64.2808ZM58.7093 4.02607V2.98345H57.6666V4.02607H58.7093ZM58.7093 19.0522V20.0949H59.7519V19.0522H58.7093ZM54.9061 19.0522H53.8635V20.0949H54.9061V19.0522ZM54.9061 4.02607H55.9487V2.98345H54.9061V4.02607ZM50.3772 4.02607V0.853775H48.292V4.02607H50.3772ZM49.3346 1.8964H64.2808V-0.188846H49.3346V1.8964ZM63.2382 0.853775V4.02607H65.3234V0.853775H63.2382ZM64.2808 2.98345H58.7093V5.06869H64.2808V2.98345ZM57.6666 4.02607V19.0522H59.7519V4.02607H57.6666ZM58.7093 18.0096H54.9061V20.0949H58.7093V18.0096ZM55.9487 19.0522V4.02607H53.8635V19.0522H55.9487ZM54.9061 2.98345H49.3346V5.06869H54.9061V2.98345ZM70.5305 0.853775L71.524 0.537701L71.2929 -0.188846H70.5305V0.853775ZM74.929 14.6803L73.9355 14.9964L74.1666 15.723H74.929V14.6803ZM75.0978 14.6803V15.723H75.8598L76.0912 14.997L75.0978 14.6803ZM79.5053 0.853775V-0.188846H78.7433L78.5119 0.537121L79.5053 0.853775ZM83.7706 0.853775L84.7562 1.19357L85.2328 -0.188846H83.7706V0.853775ZM77.4971 19.0522V20.0949H78.2405L78.4827 19.392L77.4971 19.0522ZM72.5387 19.0522L71.5531 19.3925L71.7956 20.0949H72.5387V19.0522ZM66.2563 0.853775V-0.188846H64.7934L65.2708 1.194L66.2563 0.853775ZM69.5369 1.16985L73.9355 14.9964L75.9226 14.3643L71.524 0.537701L69.5369 1.16985ZM74.929 15.723H75.0978V13.6377H74.929V15.723ZM76.0912 14.997L80.4987 1.17043L78.5119 0.537121L74.1045 14.3637L76.0912 14.997ZM79.5053 1.8964H83.7706V-0.188846H79.5053V1.8964ZM82.7849 0.513979L76.5114 18.7125L78.4827 19.392L84.7562 1.19357L82.7849 0.513979ZM77.4971 18.0096H72.5387V20.0949H77.4971V18.0096ZM73.5242 18.712L67.2419 0.513549L65.2708 1.194L71.5531 19.3925L73.5242 18.712ZM66.2563 1.8964H70.5305V-0.188846H66.2563V1.8964ZM86.4614 19.0522H85.4188V20.0949H86.4614V19.0522ZM86.4614 0.853775V-0.188846H85.4188V0.853775H86.4614ZM98.724 0.853775H99.7667V-0.188846H98.724V0.853775ZM98.724 4.02607V5.06869H99.7667V4.02607H98.724ZM90.309 4.02607V2.98345H89.2664V4.02607H90.309ZM90.309 8.36242H89.2664V9.40504H90.309V8.36242ZM98.0931 8.36242H99.1358V7.3198H98.0931V8.36242ZM98.0931 11.5347V12.5773H99.1358V11.5347H98.0931ZM90.309 11.5347V10.4921H89.2664V11.5347H90.309ZM90.309 15.88H89.2664V16.9226H90.309V15.88ZM98.7596 15.88H99.8022V14.8373H98.7596V15.88ZM98.7596 19.0522V20.0949H99.8022V19.0522H98.7596ZM87.504 19.0522V0.853775H85.4188V19.0522H87.504ZM86.4614 1.8964H98.724V-0.188846H86.4614V1.8964ZM97.6814 0.853775V4.02607H99.7667V0.853775H97.6814ZM98.724 2.98345H90.309V5.06869H98.724V2.98345ZM89.2664 4.02607V8.36242H91.3516V4.02607H89.2664ZM90.309 9.40504H98.0931V7.3198H90.309V9.40504ZM97.0505 8.36242V11.5347H99.1358V8.36242H97.0505ZM98.0931 10.4921H90.309V12.5773H98.0931V10.4921ZM89.2664 11.5347V15.88H91.3516V11.5347H89.2664ZM90.309 16.9226H98.7596V14.8373H90.309V16.9226ZM97.717 15.88V19.0522H99.8022V15.88H97.717ZM98.7596 18.0096H86.4614V20.0949H98.7596V18.0096ZM102.284 19.0522H101.241V20.0949H102.284V19.0522ZM102.284 0.853775V-0.188846H101.241V0.853775H102.284ZM112.982 1.59131L112.511 2.5216L112.518 2.52499L112.982 1.59131ZM115.213 3.66174L114.307 4.17775L114.311 4.18484L115.213 3.66174ZM115.204 9.91747L116.097 10.4557L116.098 10.453L115.204 9.91747ZM112.938 11.9079L112.497 10.9633L112.494 10.9643L112.938 11.9079ZM104.558 12.601H103.516V13.6437H104.558V12.601ZM104.558 9.50871V8.46609H103.516V9.50871H104.558ZM110.574 9.20659L110.973 10.1697L110.574 9.20659ZM111.658 8.30022L110.765 7.76184L110.76 7.77159L111.658 8.30022ZM111.658 5.2701L110.753 5.78742L110.759 5.79705L111.658 5.2701ZM110.565 4.32819L110.136 5.27854L110.143 5.28168L110.15 5.28471L110.565 4.32819ZM106.131 3.99941V2.95679H105.089V3.99941H106.131ZM106.131 19.0522V20.0949H107.174V19.0522H106.131ZM112.111 10.7705L113.026 10.2708L112.73 9.7279H112.111V10.7705ZM116.634 19.0522V20.0949H118.392L117.549 18.5525L116.634 19.0522ZM112.387 19.0522L111.467 19.5436L111.762 20.0949H112.387V19.0522ZM107.962 10.7705V9.7279H106.222L107.042 11.2619L107.962 10.7705ZM103.326 19.0522V0.853775H101.241V19.0522H103.326ZM102.284 1.8964H109.463V-0.188846H102.284V1.8964ZM109.463 1.8964C110.716 1.8964 111.719 2.12056 112.511 2.52158L113.453 0.661042C112.302 0.0786777 110.96 -0.188846 109.463 -0.188846V1.8964ZM112.518 2.52499C113.322 2.92439 113.906 3.47437 114.307 4.17773L116.119 3.14575C115.5 2.06007 114.597 1.22976 113.446 0.657633L112.518 2.52499ZM114.311 4.18484C114.719 4.88922 114.943 5.748 114.943 6.79849H117.028C117.028 5.44384 116.737 4.21146 116.114 3.13864L114.311 4.18484ZM114.943 6.79849C114.943 7.85458 114.717 8.70142 114.309 9.38194L116.098 10.453C116.734 9.39186 117.028 8.15939 117.028 6.79849H114.943ZM114.311 9.37924C113.905 10.0523 113.314 10.5814 112.497 10.9633L113.379 12.8526C114.54 12.3103 115.46 11.5124 116.097 10.4557L114.311 9.37924ZM112.494 10.9643C111.684 11.3453 110.653 11.5584 109.366 11.5584V13.6437C110.875 13.6437 112.225 13.3947 113.381 12.8516L112.494 10.9643ZM109.366 11.5584H104.558V13.6437H109.366V11.5584ZM105.601 12.601V9.50871H103.516V12.601H105.601ZM104.558 10.5513H108.744V8.46609H104.558V10.5513ZM108.744 10.5513C109.565 10.5513 110.322 10.44 110.973 10.1697L110.175 8.24348C109.855 8.37599 109.392 8.46609 108.744 8.46609V10.5513ZM110.973 10.1697C111.641 9.89293 112.191 9.45108 112.557 8.82885L110.76 7.77159C110.652 7.95502 110.479 8.11741 110.175 8.24348L110.973 10.1697ZM112.551 8.83857C112.915 8.2346 113.065 7.53565 113.065 6.79849H110.98C110.98 7.25797 110.887 7.56018 110.765 7.76187L112.551 8.83857ZM113.065 6.79849C113.065 6.05608 112.916 5.3539 112.558 4.74316L110.759 5.79705C110.887 6.01566 110.98 6.33241 110.98 6.79849H113.065ZM112.563 4.75282C112.201 4.11895 111.652 3.66306 110.98 3.37167L110.15 5.28471C110.462 5.41985 110.641 5.59189 110.753 5.78739L112.563 4.75282ZM110.994 3.37784C110.332 3.079 109.56 2.95679 108.726 2.95679V5.04203C109.372 5.04203 109.827 5.139 110.136 5.27854L110.994 3.37784ZM108.726 2.95679H106.131V5.04203H108.726V2.95679ZM105.089 3.99941V19.0522H107.174V3.99941H105.089ZM106.131 18.0096H102.284V20.0949H106.131V18.0096ZM111.196 11.2703L115.719 19.552L117.549 18.5525L113.026 10.2708L111.196 11.2703ZM116.634 18.0096H112.387V20.0949H116.634V18.0096ZM113.306 18.5609L108.881 10.2792L107.042 11.2619L111.467 19.5436L113.306 18.5609ZM107.962 11.8131H112.111V9.7279H107.962V11.8131ZM129.078 6.08761L128.04 6.19051L128.133 7.13023H129.078V6.08761ZM124.377 4.08827L124.762 5.0573L124.773 5.05263L124.377 4.08827ZM123.382 4.80803L122.547 4.18241L122.54 4.19287L123.382 4.80803ZM123.044 5.85658L124.086 5.89447L124.087 5.87553V5.85658H123.044ZM123.248 6.70963L122.358 7.25243L122.363 7.26025L122.368 7.268L123.248 6.70963ZM123.879 7.34053L123.301 8.20805L123.308 8.21254L123.314 8.21693L123.879 7.34053ZM124.803 7.79372L124.439 8.77063L124.446 8.77336L124.454 8.77597L124.803 7.79372ZM125.923 8.11361L126.166 7.09958L126.158 7.09783L126.151 7.09618L125.923 8.11361ZM127.558 8.5046L127.316 9.51863L127.323 9.52038L127.33 9.52203L127.558 8.5046ZM129.744 9.21547L129.319 10.1675L129.744 9.21547ZM131.468 10.3084L132.161 9.52971L131.468 10.3084ZM132.596 11.8368L131.647 12.2683L131.651 12.2762L132.596 11.8368ZM133.014 13.854L134.057 13.8595L134.057 13.8458L133.014 13.854ZM132.161 16.7508L131.302 16.1596L131.301 16.1609L132.161 16.7508ZM129.744 18.6435L130.151 19.6035L130.153 19.6024L129.744 18.6435ZM122.111 18.6346L121.711 19.5975L121.713 19.5983L122.111 18.6346ZM119.57 16.6353L118.707 17.2216L118.712 17.2281L119.57 16.6353ZM118.619 13.3386V12.2959H117.552L117.576 13.3621L118.619 13.3386ZM122.342 13.3386L123.382 13.2679L123.316 12.2959H122.342V13.3386ZM122.866 14.867L122.034 15.4945L122.039 15.5012L122.044 15.5079L122.866 14.867ZM124.119 15.7822L123.734 16.751L123.74 16.7536L123.747 16.7562L124.119 15.7822ZM127.602 15.8L127.223 14.8287L127.219 14.8303L127.602 15.8ZM128.731 15.0091L129.549 15.6552L128.731 15.0091ZM128.767 12.8143L127.972 13.4901L127.981 13.4997L128.767 12.8143ZM127.718 12.1034L127.307 13.0617L127.312 13.0636L127.718 12.1034ZM126.039 11.5703L125.785 12.5815L125.794 12.5838L126.039 11.5703ZM124.057 11.0726L124.311 10.0614L124.303 10.0596L124.057 11.0726ZM120.423 9.32211L119.728 10.0997L120.423 9.32211ZM119.099 6.11427L120.141 6.11886L120.141 6.10866L119.099 6.11427ZM119.978 3.22633L119.135 2.61344L119.132 2.61744L119.978 3.22633ZM129.531 1.29807L129.096 2.24571L129.098 2.24667L129.531 1.29807ZM131.894 3.22633L131.034 3.81464V3.81464L131.894 3.22633ZM132.765 6.08761V7.13023H133.825L133.808 6.07052L132.765 6.08761ZM130.115 5.98472C130.017 4.99915 129.577 4.16388 128.78 3.57745L127.544 5.25665C127.826 5.46404 127.996 5.74247 128.04 6.19051L130.115 5.98472ZM128.78 3.57745C128.005 3.00682 127.031 2.77907 125.967 2.77907V4.86431C126.752 4.86431 127.241 5.03347 127.544 5.25665L128.78 3.57745ZM125.967 2.77907C125.248 2.77907 124.574 2.88009 123.981 3.12391L124.773 5.05263C125.045 4.94101 125.432 4.86431 125.967 4.86431V2.77907ZM123.992 3.11931C123.418 3.34717 122.916 3.6915 122.548 4.18246L124.216 5.43361C124.31 5.30847 124.47 5.17296 124.762 5.05723L123.992 3.11931ZM122.54 4.19287C122.181 4.68417 122.001 5.25031 122.001 5.85658H124.087C124.087 5.68088 124.132 5.54799 124.223 5.42319L122.54 4.19287ZM122.002 5.81869C121.984 6.31808 122.089 6.81055 122.358 7.25243L124.139 6.16683C124.112 6.12294 124.08 6.04672 124.086 5.89447L122.002 5.81869ZM122.368 7.268C122.608 7.64725 122.927 7.95877 123.301 8.20805L124.458 6.47302C124.298 6.36686 124.196 6.25778 124.129 6.15126L122.368 7.268ZM123.314 8.21693C123.654 8.43571 124.031 8.61856 124.439 8.77063L125.168 6.8168C124.876 6.70822 124.638 6.58895 124.444 6.46414L123.314 8.21693ZM124.454 8.77597C124.847 8.91584 125.261 9.03382 125.695 9.13105L126.151 7.09618C125.791 7.01569 125.459 6.9204 125.153 6.81146L124.454 8.77597ZM125.681 9.12764L127.316 9.51863L127.801 7.49057L126.166 7.09958L125.681 9.12764ZM127.33 9.52203C128.064 9.68635 128.726 9.90276 129.319 10.1675L130.169 8.26342C129.435 7.93579 128.639 7.67828 127.786 7.48716L127.33 9.52203ZM129.319 10.1675C129.896 10.4251 130.378 10.7337 130.775 11.0872L132.161 9.52971C131.587 9.01825 130.919 8.59822 130.169 8.26342L129.319 10.1675ZM130.775 11.0872C131.153 11.4239 131.441 11.8154 131.647 12.2683L133.546 11.4054C133.218 10.6853 132.754 10.0579 132.161 9.52971L130.775 11.0872ZM131.651 12.2762C131.851 12.7062 131.966 13.2274 131.971 13.8621L134.057 13.8458C134.05 12.964 133.887 12.1405 133.542 11.3975L131.651 12.2762ZM131.971 13.8484C131.966 14.7794 131.732 15.535 131.302 16.1596L133.02 17.342C133.715 16.3315 134.05 15.1559 134.057 13.8595L131.971 13.8484ZM131.301 16.1609C130.874 16.7838 130.238 17.2991 129.335 17.6846L130.153 19.6024C131.359 19.0875 132.334 18.3409 133.021 17.3407L131.301 16.1609ZM129.337 17.6835C128.45 18.0595 127.331 18.2673 125.95 18.2673V20.3526C127.53 20.3526 128.941 20.116 130.151 19.6035L129.337 17.6835ZM125.95 18.2673C124.585 18.2673 123.446 18.0579 122.509 17.671L121.713 19.5983C122.956 20.1117 124.376 20.3526 125.95 20.3526V18.2673ZM122.511 17.6717C121.594 17.2908 120.913 16.7449 120.427 16.0424L118.712 17.2281C119.447 18.2909 120.46 19.078 121.711 19.5975L122.511 17.6717ZM120.432 16.049C119.963 15.3598 119.687 14.4674 119.661 13.315L117.576 13.3621C117.61 14.8281 117.968 16.1335 118.707 17.2215L120.432 16.049ZM118.619 14.3812H122.342V12.2959H118.619V14.3812ZM121.302 13.4093C121.354 14.1814 121.582 14.895 122.034 15.4945L123.699 14.2395C123.535 14.0214 123.413 13.7161 123.382 13.2679L121.302 13.4093ZM122.044 15.5079C122.483 16.0711 123.058 16.4821 123.734 16.751L124.504 14.8134C124.138 14.6676 123.878 14.4685 123.689 14.226L122.044 15.5079ZM123.747 16.7562C124.412 17.0102 125.136 17.127 125.905 17.127V15.0417C125.347 15.0417 124.881 14.9571 124.491 14.8082L123.747 16.7562ZM125.905 17.127C126.655 17.127 127.356 17.0183 127.986 16.7697L127.219 14.8303C126.889 14.9608 126.459 15.0417 125.905 15.0417V17.127ZM127.982 16.7713C128.603 16.5286 129.146 16.1664 129.549 15.6552L127.913 14.3631C127.783 14.5272 127.573 14.6923 127.223 14.8287L127.982 16.7713ZM129.549 15.6552C129.964 15.1298 130.173 14.5131 130.173 13.8451H128.088C128.088 14.0538 128.031 14.2132 127.913 14.3631L129.549 15.6552ZM130.173 13.8451C130.173 13.2131 129.979 12.6179 129.552 12.1289L127.981 13.4997C128.04 13.5676 128.088 13.6595 128.088 13.8451H130.173ZM129.561 12.1386C129.187 11.6991 128.683 11.3797 128.124 11.1432L127.312 13.0636C127.677 13.2181 127.873 13.3726 127.973 13.49L129.561 12.1386ZM128.129 11.1451C127.603 10.9198 126.984 10.7256 126.283 10.5567L125.794 12.5838C126.42 12.7348 126.921 12.896 127.307 13.0617L128.129 11.1451ZM126.292 10.559L124.311 10.0614L123.803 12.0839L125.785 12.5815L126.292 10.559ZM124.303 10.0596C122.883 9.71417 121.843 9.19316 121.117 8.54456L119.728 10.0997C120.779 11.0387 122.162 11.6847 123.811 12.0857L124.303 10.0596ZM121.117 8.54456C120.481 7.9764 120.136 7.2078 120.141 6.11886L118.056 6.10968C118.049 7.71023 118.587 9.08018 119.728 10.0997L121.117 8.54456ZM120.141 6.10866C120.136 5.20717 120.372 4.46409 120.825 3.83522L119.132 2.61744C118.4 3.63544 118.049 4.81765 118.056 6.11987L120.141 6.10866ZM120.822 3.83921C121.3 3.18158 121.967 2.64811 122.862 2.25128L122.017 0.344868C120.827 0.872175 119.854 1.62421 119.135 2.61345L120.822 3.83921ZM122.862 2.25128C123.752 1.85703 124.789 1.64759 125.994 1.64759V-0.437654C124.545 -0.437654 123.213 -0.185024 122.017 0.344868L122.862 2.25128ZM125.994 1.64759C127.227 1.64759 128.252 1.85838 129.096 2.24571L129.966 0.35044C128.796 -0.186378 127.463 -0.437654 125.994 -0.437654V1.64759ZM129.098 2.24667C129.959 2.63931 130.59 3.1658 131.034 3.81464L132.755 2.63802C132.073 1.63999 131.129 0.880975 129.963 0.349477L129.098 2.24667ZM131.034 3.81464C131.471 4.45486 131.708 5.20615 131.723 6.1047L133.808 6.07052C133.787 4.8009 133.443 3.64466 132.755 2.63802L131.034 3.81464ZM132.765 5.04499H129.078V7.13023H132.765V5.04499ZM136.103 19.0522H135.06V20.0949H136.103V19.0522ZM136.103 0.853775V-0.188846H135.06V0.853775H136.103ZM148.365 0.853775H149.408V-0.188846H148.365V0.853775ZM148.365 4.02607V5.06869H149.408V4.02607H148.365ZM139.95 4.02607V2.98345H138.908V4.02607H139.95ZM139.95 8.36242H138.908V9.40504H139.95V8.36242ZM147.734 8.36242H148.777V7.3198H147.734V8.36242ZM147.734 11.5347V12.5773H148.777V11.5347H147.734ZM139.95 11.5347V10.4921H138.908V11.5347H139.95ZM139.95 15.88H138.908V16.9226H139.95V15.88ZM148.401 15.88H149.443V14.8373H148.401V15.88ZM148.401 19.0522V20.0949H149.443V19.0522H148.401ZM137.145 19.0522V0.853775H135.06V19.0522H137.145ZM136.103 1.8964H148.365V-0.188846H136.103V1.8964ZM147.323 0.853775V4.02607H149.408V0.853775H147.323ZM148.365 2.98345H139.95V5.06869H148.365V2.98345ZM138.908 4.02607V8.36242H140.993V4.02607H138.908ZM139.95 9.40504H147.734V7.3198H139.95V9.40504ZM146.692 8.36242V11.5347H148.777V8.36242H146.692ZM147.734 10.4921H139.95V12.5773H147.734V10.4921ZM138.908 11.5347V15.88H140.993V11.5347H138.908ZM139.95 16.9226H148.401V14.8373H139.95V16.9226ZM147.358 15.88V19.0522H149.443V15.88H147.358ZM148.401 18.0096H136.103V20.0949H148.401V18.0096Z" fill="white"/>
</svg>
