<svg fill="none" height="35" viewBox="0 0 64 35" width="64" xmlns="http://www.w3.org/2000/svg"><g fill="#FF0000" stroke="#FF0000" stroke-miterlimit="10" stroke-width=".326795"><path d="m53.5349 10.4188v-4.68638h-4.6864v4.68638z"/><path d="m48.8491 5.73251v-4.68637h-4.6864v4.68637z"/><path d="m58.2102 15.1053v-4.6864h-4.6864v4.6864z"/><path d="m62.9082 19.7916v-4.6864h-4.6864v4.6864z"/><path d="m58.2211 24.4666v-4.6863h-4.6864v4.6863z"/><path d="m53.5349 29.153v-4.6864h-4.6864v4.6864z"/><path d="m48.8491 33.8282v-4.6864h-4.6864v4.6864z"/><path d="m31.9482 10.4188v-4.68638h-4.6864v4.68638z"/><path d="m27.2614 5.73251v-4.68637h-4.6864v4.68637z"/><path d="m36.6353 15.0938v-4.6863h-4.6865v4.6863z"/><path d="m41.3214 19.7804v-4.6864h-4.6864v4.6864z"/><path d="m36.6353 24.4666v-4.6863h-4.6864v4.6863z"/><path d="m31.9482 29.153v-4.6864h-4.6865v4.6864z"/><path d="m27.2614 33.8394v-4.6863h-4.6864v4.6863z"/><path d="m10.3617 10.4188v-4.68638h-4.68638v4.68638z"/><path d="m5.6864 5.73251v-4.68637h-4.686404v4.68637z"/><path d="m15.0479 15.1053v-4.6864h-4.6864v4.6864z"/><path d="m19.7455 19.7916v-4.6864h-4.6864v4.6864z"/><path d="m15.0594 24.4666v-4.6863h-4.6864v4.6863z"/><path d="m10.3729 29.153v-4.6864h-4.68644v4.6864z"/><path d="m5.6864 33.8394v-4.6863h-4.68637v4.6863z"/></g></svg>