<svg width="31" height="17" viewBox="0 0 31 17" fill="none" xmlns="http://www.w3.org/2000/svg">
<path d="M5.36084 5.05386V2.87341H7.54127V5.05386H5.36084Z" fill="white" stroke="white" stroke-width="0.526676" stroke-miterlimit="10"/>
<path d="M7.5415 2.87342V0.692993L9.72195 0.692993V2.87342H7.5415Z" fill="white" stroke="white" stroke-width="0.526676" stroke-miterlimit="10"/>
<path d="M3.18604 7.23438V5.05396H5.36648V7.23438H3.18604Z" fill="white" stroke="white" stroke-width="0.526676" stroke-miterlimit="10"/>
<path d="M1 9.4147L1 7.23425H3.18045V9.4147H1Z" fill="white" stroke="white" stroke-width="0.526676" stroke-miterlimit="10"/>
<path d="M3.18066 11.5899V9.40942H5.36109V11.5899H3.18066Z" fill="white" stroke="white" stroke-width="0.526676" stroke-miterlimit="10"/>
<path d="M5.36084 13.7703V11.5898H7.54129V13.7703H5.36084Z" fill="white" stroke="white" stroke-width="0.526676" stroke-miterlimit="10"/>
<path d="M7.5415 15.9456V13.7651H9.72193V15.9456H7.5415Z" fill="white" stroke="white" stroke-width="0.526676" stroke-miterlimit="10"/>
<path d="M15.4048 5.05386V2.87341H17.5852V5.05386H15.4048Z" fill="white" stroke="white" stroke-width="0.526676" stroke-miterlimit="10"/>
<path d="M17.585 2.87342V0.692993L19.7654 0.692993V2.87342H17.585Z" fill="white" stroke="white" stroke-width="0.526676" stroke-miterlimit="10"/>
<path d="M13.2241 7.22901V5.04858H15.4046V7.22901H13.2241Z" fill="white" stroke="white" stroke-width="0.526676" stroke-miterlimit="10"/>
<path d="M11.0439 9.40945V7.229H13.2244V9.40945H11.0439Z" fill="white" stroke="white" stroke-width="0.526676" stroke-miterlimit="10"/>
<path d="M13.2241 11.5899V9.40942H15.4046V11.5899H13.2241Z" fill="white" stroke="white" stroke-width="0.526676" stroke-miterlimit="10"/>
<path d="M15.4048 13.7703V11.5898H17.5852V13.7703H15.4048Z" fill="white" stroke="white" stroke-width="0.526676" stroke-miterlimit="10"/>
<path d="M17.585 15.9508V13.7704H19.7654V15.9508H17.585Z" fill="white" stroke="white" stroke-width="0.526676" stroke-miterlimit="10"/>
<path d="M25.4482 5.05386V2.87341H27.6287V5.05386H25.4482Z" fill="white" stroke="white" stroke-width="0.526676" stroke-miterlimit="10"/>
<path d="M27.6235 2.87342V0.692993L29.804 0.692993V2.87342H27.6235Z" fill="white" stroke="white" stroke-width="0.526676" stroke-miterlimit="10"/>
<path d="M23.2681 7.23438V5.05396H25.4485V7.23438H23.2681Z" fill="white" stroke="white" stroke-width="0.526676" stroke-miterlimit="10"/>
<path d="M21.082 9.4147V7.23425H23.2625V9.4147H21.082Z" fill="white" stroke="white" stroke-width="0.526676" stroke-miterlimit="10"/>
<path d="M23.2627 11.5899V9.40942H25.4431V11.5899H23.2627Z" fill="white" stroke="white" stroke-width="0.526676" stroke-miterlimit="10"/>
<path d="M25.4434 13.7703V11.5898H27.6238V13.7703H25.4434Z" fill="white" stroke="white" stroke-width="0.526676" stroke-miterlimit="10"/>
<path d="M27.6235 15.9508V13.7704H29.804V15.9508H27.6235Z" fill="white" stroke="white" stroke-width="0.526676" stroke-miterlimit="10"/>
</svg>
