<svg width="26" height="17" viewBox="0 0 26 17" fill="none" xmlns="http://www.w3.org/2000/svg">
<path d="M21.8779 5.37871V3.18933H20.0155V5.37871H21.8779Z" fill="#FF0000" stroke="#FF0000" stroke-width="0.246618" stroke-miterlimit="10"/>
<path d="M20.0156 3.18935V1L18.1532 1V3.18935H20.0156Z" fill="#FF0000" stroke="#FF0000" stroke-width="0.246618" stroke-miterlimit="10"/>
<path d="M23.7358 7.56801V5.37866H21.8734V7.56801H23.7358Z" fill="#FF0000" stroke="#FF0000" stroke-width="0.246618" stroke-miterlimit="10"/>
<path d="M25.6025 9.75736V7.56799H23.7401V9.75736H25.6025Z" fill="#FF0000" stroke="#FF0000" stroke-width="0.246618" stroke-miterlimit="10"/>
<path d="M23.7402 11.9416V9.7522H21.8778V11.9416H23.7402Z" fill="#FF0000" stroke="#FF0000" stroke-width="0.246618" stroke-miterlimit="10"/>
<path d="M21.8779 14.1309V11.9415H20.0155V14.1309H21.8779Z" fill="#FF0000" stroke="#FF0000" stroke-width="0.246618" stroke-miterlimit="10"/>
<path d="M20.0156 16.3151V14.1257H18.1532V16.3151H20.0156Z" fill="#FF0000" stroke="#FF0000" stroke-width="0.246618" stroke-miterlimit="10"/>
<path d="M13.2988 5.37871V3.18933H11.4364V5.37871H13.2988Z" fill="#FF0000" stroke="#FF0000" stroke-width="0.246618" stroke-miterlimit="10"/>
<path d="M11.4365 3.18935V1L9.57411 1V3.18935H11.4365Z" fill="#FF0000" stroke="#FF0000" stroke-width="0.246618" stroke-miterlimit="10"/>
<path d="M15.1616 7.56276V5.37341H13.2992V7.56276H15.1616Z" fill="#FF0000" stroke="#FF0000" stroke-width="0.246618" stroke-miterlimit="10"/>
<path d="M17.0239 9.75211V7.56274H15.1615V9.75211H17.0239Z" fill="#FF0000" stroke="#FF0000" stroke-width="0.246618" stroke-miterlimit="10"/>
<path d="M15.1616 11.9416V9.7522H13.2992V11.9416H15.1616Z" fill="#FF0000" stroke="#FF0000" stroke-width="0.246618" stroke-miterlimit="10"/>
<path d="M13.2988 14.1309V11.9415H11.4364V14.1309H13.2988Z" fill="#FF0000" stroke="#FF0000" stroke-width="0.246618" stroke-miterlimit="10"/>
<path d="M11.4365 16.3202V14.1309H9.57413V16.3202H11.4365Z" fill="#FF0000" stroke="#FF0000" stroke-width="0.246618" stroke-miterlimit="10"/>
<path d="M4.72021 5.37871V3.18933H2.85782V5.37871H4.72021Z" fill="#FF0000" stroke="#FF0000" stroke-width="0.246618" stroke-miterlimit="10"/>
<path d="M2.8623 3.18935V1L0.999894 1L0.999894 3.18935H2.8623Z" fill="#FF0000" stroke="#FF0000" stroke-width="0.246618" stroke-miterlimit="10"/>
<path d="M6.58301 7.56801V5.37866H4.7206V7.56801H6.58301Z" fill="#FF0000" stroke="#FF0000" stroke-width="0.246618" stroke-miterlimit="10"/>
<path d="M8.44971 9.75736V7.56799H6.5873V9.75736H8.44971Z" fill="#FF0000" stroke="#FF0000" stroke-width="0.246618" stroke-miterlimit="10"/>
<path d="M6.5874 11.9416V9.7522H4.72501V11.9416H6.5874Z" fill="#FF0000" stroke="#FF0000" stroke-width="0.246618" stroke-miterlimit="10"/>
<path d="M4.7251 14.1309V11.9415H2.86269V14.1309H4.7251Z" fill="#FF0000" stroke="#FF0000" stroke-width="0.246618" stroke-miterlimit="10"/>
<path d="M2.8623 16.3202V14.1309H0.999907L0.999907 16.3202H2.8623Z" fill="#FF0000" stroke="#FF0000" stroke-width="0.246618" stroke-miterlimit="10"/>
</svg>
