<svg fill="none" height="109" viewBox="0 0 117 109" width="117" xmlns="http://www.w3.org/2000/svg" xmlns:xlink="http://www.w3.org/1999/xlink"><clipPath id="a"><path d="m24 27h72v53h-72z"/></clipPath><g clip-path="url(#a)"><path d="m95.9571 68.3552c.279 1.4894-.9086 2.6083-1.8959 3.7628-2.0676 2.4016-4.7289 3.9837-7.6049 5.2309-2.9619 1.2828-6.0525 2.0809-9.2433 2.5299-.3934.057-.7869.0855-1.1876.0998-.5723.0285-1.0731-.1711-1.4165-.6343-.9229-1.24-1.8243-2.4872-2.7329-3.7343-.2576-.3492.1002-.3349.2647-.3777 1.7456-.4561 3.4412-1.0547 5.101-1.7531 2.0961-.8837 4.0922-1.967 5.9165-3.3281.4579-.3421.8943-.6984.9086-1.3541.0143-.6128-.1574-1.1259-.7226-1.4253-.6153-.3278-1.2091-.2636-1.7528.1568-.8513.6699-1.7599 1.24-2.6971 1.7674-2.4396 1.3612-5.0294 2.3518-7.7266 3.0573-3.1693.8267-6.3815 1.2614-9.6582 1.3754-4.9507.1639-9.7941-.4062-14.5159-1.8885-2.8545-.898-5.5659-2.1095-8.0198-3.8412-.186-.1283-.3649-.2708-.5438-.4134-.7368-.5915-1.6669-.5487-2.2106.0927-.5652.677-.4722 1.5892.2647 2.2163.9301.7911 1.9746 1.4182 3.0405 2.024 2.5469 1.4324 5.2512 2.4729 8.0628 3.2568.093.0285.186.0641.2862.0784.3076.0499.3506.1639.1574.4204-.5866.784-1.1518 1.5821-1.7242 2.3661-.2647.3634-.5508.7197-.8012 1.0974-.4722.7056-1.1304.9265-1.9531.8338-2.4468-.2708-4.8363-.791-7.1757-1.5535-2.9475-.955-5.7305-2.2378-8.1916-4.1406-1.5167-1.1687-2.8116-2.5441-3.8132-4.1832-.2504-.3991-.372-.8267-.372-1.3113.0286-2.6582.2361-5.3021.5795-7.939.5151-4.0265 1.3307-7.9959 2.4038-11.9084 1.1876-4.2973 2.6113-8.5091 4.6073-12.5142.3649-.734.8013-1.4324 1.2234-2.1308.9014-1.4823 2.3466-2.3161 3.7846-3.1428 3.2623-1.8672 6.8108-2.929 10.4809-3.6417 1.0874-.2138 2.182-.3705 3.2766-.4917.7298-.0784 1.3951.2708 1.7027.9336.136.2922.229.6129.3577.905.1503.3421.0287.4775-.3219.5345-1.5525.2495-3.0835.6129-4.6002 1.0476-3.0405.8766-5.9451 2.0739-8.6351 3.7343-.744.4633-.9944 1.347-.5866 2.0596.4006.7198 1.3449.9906 2.1104.5345 1.8458-1.0975 3.7703-2.0097 5.795-2.7366 2.2678-.8053 4.593-1.3683 6.9539-1.7674 2.5469-.4204 5.1224-.6984 7.705-.5915 6.074.2566 11.9261 1.4325 17.349 4.3116.4865.2565.9444.5701 1.438.8195.7154.3635 1.5167.1639 1.9674-.4632.3935-.5416.3291-1.4253-.1502-1.917-.2933-.2993-.6725-.4704-1.0302-.6771-3.3625-1.917-6.9682-3.2069-10.7528-4.0122-.6224-.1354-1.2448-.2637-1.8744-.3706-.2933-.0499-.4007-.1639-.279-.4561.1287-.3135.2289-.6414.3648-.9478.3005-.677.9945-1.0405 1.7314-.9621 2.7543.3136 5.4586.8552 8.0985 1.6961 2.8832.9194 5.6161 2.138 8.0271 3.998.7225.5559 1.209 1.3042 1.6669 2.0738 1.7671 2.9575 2.9904 6.1502 4.0922 9.3928 1.3092 3.8555 2.3323 7.7964 3.0906 11.7944.4436 2.3304.8013 4.675 1.0231 7.041.1645 1.689.2647 3.378.3434 5.352zm-51.5461-12.1721c.0143 2.3945.744 4.0977 2.1105 5.3093 1.9674 1.746 4.7575 1.7246 6.6748-.0571 2.6471-2.4586 2.7544-6.8771.229-9.464-1.9173-1.9669-4.9507-2.0524-6.9682-.1924-1.4094 1.297-1.9889 2.9432-2.039 4.4042zm31.128.4276c0-1.24-.3363-2.4801-.9802-3.5562-1.6884-2.8149-5.1367-3.4635-7.6407-1.4253-3.0834 2.5014-2.9189 7.8392.3005 10.1767 1.9531 1.4182 4.4285 1.2899 6.217-.3278 1.438-1.3042 2.0747-2.9646 2.1034-4.8674z" fill="#FF0000"/></g></svg>