<svg fill="none" height="109" viewBox="0 0 117 109" width="117" xmlns="http://www.w3.org/2000/svg"><path d="m76.0598 20c.7159.4188.9402 1.0818.9402 1.8757v9.0907c0 1.5878-.5089 2.1025-2.0961 2.1112-1.984.0175-3.968.0262-5.9433.0262-.4572 0-.9057.0785-1.337.1832-1.3629.3228-2.1997 1.2738-2.3635 2.6871-.2847 2.5213-.0691 5.0513-.1294 7.5726-.0173.5148.3364.4624.6642.4624h8.6604.647c.8108.0262 1.268.4101 1.4319 1.2301.0604.2705.0776.5584.0776.8463v9.6752c0 1.6314-.5089 2.1549-2.1306 2.1549-2.8466 0-5.6931.0174-8.5311-.0088-.6642 0-.8367.2094-.8281.8637.0173 8.7156.0173 17.4398.0087 26.1553 0 .2617.0086.5235-.0173.7852-.0949.7677-.6211 1.2825-1.3888 1.2825-3.7695.0087-7.5391.0087-11.3172 0-.7332 0-1.1732-.4275-1.3457-1.1691-.0862-.3839-.0862-.7764-.0862-1.169 0-8.5672 0-17.1345 0-25.6929 0-.6863-.348-1.0295-1.0438-1.0295-2.1565 0-4.313 0-6.4608 0-.2157 0-.4313 0-.647 0-1.3111-.0785-1.8114-.602-1.8201-1.9368-.0086-1.5267 0-3.0535 0-4.5802 0-1.8321 0-3.6642 0-5.4963 0-1.3697.5348-1.8931 1.8719-1.9019 2.4584 0 4.9168-.0174 7.3665.0088.578 0 .7419-.192.7333-.7503-.0259-2.1113-.0346-4.2313 0-6.3425.0431-2.8878.3967-5.7319 1.6303-8.3928 1.9753-4.2923 5.2791-6.9357 9.8077-8.0612.785-.2006 1.5958-.3228 2.398-.4798z" fill="#FF0000"/></svg>