<svg fill="none" height="109" viewBox="0 0 117 109" width="117" xmlns="http://www.w3.org/2000/svg" xmlns:xlink="http://www.w3.org/1999/xlink"><clipPath id="a"><path d="m27 22h60v63h-60z"/></clipPath><g clip-path="url(#a)" fill="#FF0000"><path d="m59.1209 22.0644c3.0756.101 8.095-.3583 13.0799.2756 7.8358 1.0015 13.1663 6.2568 14.0043 14.5809 1.054 10.5291 1.0022 21.15.1296 31.6699-.8467 10.1892-6.7041 15.5824-16.2419 16.0509-9.0108.4411-18.0302.5054-27.041 0-8.9763-.5145-14.6609-6.367-15.4903-16.7032-.8121-10.0789-.7516-20.2221.2246-30.2826.9158-9.4909 7.162-15.2975 16.216-15.564 4.3974-.1286 8.8034-.0183 15.1188-.0183zm-1.6242 5.0532v.0551c-4.1296 0-8.2592-.1102-12.3801.0276-3.7668.1286-7.5162.5053-10.0908 4.1069-2.1943 3.0595-2.6954 6.6703-2.7559 10.281-.1382 8.5262-.1555 17.0616-.0086 25.5969.1209 7.2951 4.5874 12.1002 11.4384 12.3575 8.7948.3215 17.5896.6247 26.3845 0 3.3434-.2389 6.5658-.8085 8.8466-3.8864 1.7106-2.3061 2.419-4.9706 2.6436-7.7912.7171-9.0407.3629-18.1089.1815-27.1496-.1815-9.2428-4.5011-13.3865-13.2095-13.5886-3.6804-.0827-7.3694-.0184-11.0583-.0184z"/><path d="m71.5097 53.4954c-.0345 8.7191-6.7559 15.7844-14.9805 15.7477-8.1037-.0368-14.8337-7.1756-14.8424-15.7661-.0086-8.7559 6.8078-15.9958 15.0324-15.959 8.1383.0367 14.8337 7.2582 14.7992 15.9774zm-4.7084-.1562c-.0173-6.1742-4.4924-11.0896-10.0993-11.0804-5.6847 0-10.2895 4.9981-10.2722 11.1539.0173 6.1557 4.648 11.1079 10.3326 11.0803 5.5983-.0367 10.0562-4.9797 10.0303-11.1446z"/><path d="m72.4342 40.1089c-1.7452.0276-3.3607-1.6813-3.378-3.5648-.0086-1.957 1.4773-3.5832 3.3002-3.6016 1.8315-.0183 3.3348 1.5619 3.378 3.5281.0345 1.8651-1.5465 3.62-3.3002 3.6383z"/></g></svg>