<svg fill="none" height="23" viewBox="0 0 19 23" width="19" xmlns="http://www.w3.org/2000/svg"><path d="m5.27778 10.4545h8.44442v-3.13632c0-1.15435-.4123-2.13991-1.237-2.95667-.8246-.81677-1.8197-1.22515-2.9852-1.22515-1.16551 0-2.16059.40838-2.98524 1.22515-.82466.81676-1.23698 1.80232-1.23698 2.95667zm13.72222 1.5682v9.4091c0 .4356-.1539.8059-.4618 1.1108s-.6817.4574-1.1215.4574h-15.83337c-.43981 0-.813654-.1525-1.121524-.4574-.307871-.3049-.461806-.6752-.461806-1.1108v-9.4091c0-.4356.153935-.8058.461806-1.1108.30787-.3049.681714-.4574 1.121524-.4574h.52778v-3.13632c0-2.00379.7257-3.72443 2.17708-5.16193 1.45139-1.4375 3.18866-2.15625 5.21181-2.15625 2.0231 0 3.7604.71875 5.2118 2.15625s2.1771 3.15814 2.1771 5.16193v3.13632h.5278c.4398 0 .8136.1525 1.1215.4574.3079.305.4618.6752.4618 1.1108z" fill="#e5e5e5"/></svg>