<svg fill="none" height="41" viewBox="0 0 665 41" width="665" xmlns="http://www.w3.org/2000/svg" xmlns:xlink="http://www.w3.org/1999/xlink"><clipPath id="a"><path d="m0 0h41v665h-41z" transform="matrix(0 -1 1 0 0 41)"/></clipPath><g clip-path="url(#a)" fill="#FF0000"><path d="m402.796 20.1385c.094 9.8568-5.784 15.8051-15.293 15.8955l-10.628.1011-.299-31.48514 10.627-.10104c9.522-.09052 15.499 5.73288 15.593 15.60188zm-3.894.037c-.073-7.6104-4.062-12.34783-11.667-12.27553l-6.905.06565.236 24.77078 6.905-.0657c7.617-.0724 11.503-4.8847 11.431-12.4952z"/><path d="m411.505 4.31787 3.722-.03539.3 31.48512-3.723.0354z"/><path d="m424.223 19.9348c-.098-10.21271 5.998-16.50687 14.402-16.58677 6.192-.05887 11.849 3.11593 13.519 10.71117l-3.759.0357c-1.465-5.4734-5.477-7.37487-9.715-7.33457-6.377.06063-10.619 4.92547-10.54 13.14957.078 8.2242 4.411 13.0075 10.788 12.9469 4.472-.0426 9.053-2.7868 9.782-8.8458l3.723-.0354c-.721 8.2317-7.01 12.2321-13.473 12.2936-8.403.0799-14.618-6.0972-14.715-16.31z"/><path d="m481.074 7.00781-10.713.10185.267 28.13404-3.845.0366-.268-28.13407-10.713.10185-.032-3.36331 25.272-.24028z"/><path d="m488.795 3.58307 3.722-.03539.3 31.48512-3.723.0354z"/><path d="m501.513 19.2c-.093-9.77086 5.777-16.50482 14.943-16.59196 9.165-.08714 15.15 6.5341 15.243 16.30496.093 9.7708-5.778 16.5047-14.931 16.5918-9.153.087-15.162-6.534-15.255-16.3048zm26.291-.25c-.076-8.0032-4.547-13.00618-11.316-12.94182-6.77.06437-11.145 5.15142-11.068 13.15462.076 8.0032 4.546 13.0062 11.316 12.9418 6.769-.0644 11.144-5.1514 11.068-13.1546z"/><path d="m565.458 2.85417.3 31.48513-4.509.0428-10.598-16.1281c-2.207-3.3794-4.9-7.5645-6.649-10.59233.194 6.18523.249 12.02813.29 16.27523l.1 10.6055-3.673.0349-.299-31.48507 4.509-.04287 10.597 16.12814c2.207 3.3795 4.901 7.5645 6.649 10.5923-.193-6.1852-.249-12.0281-.289-16.2752l-.101-10.61778 3.673-.03492z"/><path d="m594.628 24.9069-14.337.1363-3.538 9.1915-3.894.037 12.269-31.60457 4.165-.0396 13.052 31.36387-3.944.0375-3.761-9.1222zm-1.359-3.3508-.175-.3911c-1.409-3.3871-3.938-9.6483-5.889-14.4911-1.772 4.8782-4.144 11.186-5.488 14.6484l-.131.3572 11.683-.1111z"/><path d="m634.018 33.6903-3.846.0366c-.722-1.0121-.994-2.5072-1.06-4.1884l-.167-3.362c-.213-4.3805-1.911-5.862-5.683-5.8262l-10.27.0977.127 13.441-3.722.0354-.3-31.48513 13.318-.12662c6.192-.05887 10.692 2.85686 10.746 8.47875.039 4.1612-2.149 6.6495-5.1 7.6596 2.748.8578 4.143 2.8823 4.396 6.1453l.355 5.0789c.099 1.4108.421 2.9177 1.193 4.0152zm-4.688-22.6415c-.036-3.75611-2.755-5.41207-6.871-5.37294l-9.607.09134.108 11.3175 10.049-.0956c3.674-.0349 6.359-1.9632 6.321-5.9403z"/><path d="m664.838 1.90931-11.861 18.95639.12 12.6432-3.722.0354-.121-12.6554-12.219-18.72752 4.251-.04042 4.714 7.34533c1.746 2.68411 3.455 5.36861 5.127 8.09021 1.608-2.7528 3.265-5.5184 4.972-8.23533l4.537-7.38418 4.202-.03995z"/><path d="m195.057 41.6448c-3.883.0369-7.753.0737-11.635.1106-1.106.0105-1.118.0107-1.128-1.0818-.035-3.6211-.069-7.2422-.104-10.8633-.008-.8715.095-1.7195.345-2.5444.477-1.539 1.462-2.5796 2.993-3.0852.172-.0507.343-.1137.502-.1643.649-.2149.662-.215.655-.9147-.008-.8101-.015-1.6203-.023-2.4304-.004-.4296-.142-.6739-.584-.7187-.123-.0112-.247-.0591-.37-.0825-2.068-.4713-3.148-1.6027-3.5-3.6986-.104-.6251-.171-1.2505-.178-1.8888-.031-3.2651-.062-6.53025-.093-9.79538-.001-.12274-.002-.25777-.003-.38052.031-.56499.116-.65173.681-.68166.172-.00163.357-.00339.529-.00502 7.506-.07137 15.001-.14262 22.507-.214.844-.00802 1.27.40123 1.277 1.22774.007.71194.014 1.41161.021 2.12355.006.69967-.079.76187-.792.79319-.233.00222-.454.00432-.688.00654-5.884.05595-11.757.11179-17.642.16774-.737.00701-1.102.36648-1.096 1.07843.033 3.41239.065 6.83709.098 10.24949.002.1719.003.356.005.5279.004.3928.202.5382.57.5347.332-.0032.664-.0063.983-.0094 5.48-.0521 10.947-.104 16.426-.1561.852-.0081 1.286.4256 1.303 1.3011.006.6383.012 1.2643.018 1.9026-.019.6508-.116.75-.742.7805-.258.0024-.504.0048-.762.0072-5.479.0521-10.947.1041-16.426.1562-1.487.0141-1.315-.0121-1.302 1.3382.035 3.6702.07 7.3404.105 11.0106.001.1227.002.2577.003.3805.009.9083.034.9326.943.924 6.18-.0588 12.372-.1176 18.551-.1764.877-.0083 1.319.4171 1.327 1.2764.007.6874.013 1.3625.02 2.0499-.006.6998-.091.7865-.804.7933-2.15.0204-4.312.041-6.462.0614-1.855.0177-3.698.0352-5.553.0528z"/><path d="m296.071 40.6844c-3.747.0356-7.507.0714-11.254.107-.172.0016-.356.0034-.528.005-.897.0085-.947-.0524-.955-.9362-.036-3.7438-.072-7.4876-.107-11.2438-.006-.6137.074-1.216.204-1.8065.412-1.8207 1.47-3.0707 3.295-3.6404 1.004-.3165 1.031-.0958 1.006-1.4091-.006-.6874-.025-1.3624-.019-2.0499-.004-.4296-.166-.649-.597-.7063-.48-.0691-.935-.1998-1.392-.3919-1.122-.4681-1.88-1.2711-2.235-2.4339-.253-.8079-.396-1.629-.404-2.4637-.033-3.4369-.065-6.88619-.098-10.32316-.008-.83469.065-.89677.913-.90483 7.703-.07324 15.419-.14659 23.122-.21983.147-.0014.307-.00292.454.00795.296.02175.481.15502.484.47416.01 1.06792.02 2.12356.03 3.19148.004.31914-.204.44388-.499.45896-.258.00245-.504.01706-.762.01951-5.835.05549-11.659.11086-17.495.16634-.208.00199-.405.00385-.614.00584-.823.00783-.847.04489-.852.86742.034 3.54746.068 7.08266.101 10.63006.009.8838.009.8961.906.8875 5.651-.0537 11.303-.1074 16.967-.1613.258-.0024.503-.0048.761-.0072.381-.0036.567.1787.571.547.009.9574.018 1.9271.027 2.8846.003.3437-.167.5172-.499.5326-.258.0147-.503.0171-.761.0195-5.295.0503-10.603.1008-15.898.1512-.479.0045-.958.0213-1.45.0383-.368.0035-.575.1651-.559.5577.001.1473.002.3069.004.4542.037 3.8789.073 7.7455.11 11.6243.01 1.0066.01 1.0188 1.03 1.0091 6.155-.0585 12.322-.1171 18.478-.1756.868-.0083 1.306.4213 1.314 1.2887.007.6629.013 1.3134.019 1.9763-.005.7857-.066.8477-.876.8676-2.433.0232-4.865.0463-7.298.0694-1.548.0147-3.096.0295-4.644.0442z"/><path d="m261.572 6.07493c-2.2-.05274-4.409.23833-6.566.86036-1.482.43148-1.664.65418-1.748 2.21403-.042.71241-.036 1.41208.069 2.12308.29 2.0105 1.434 3.4114 3.127 4.4387 1.235.7494 2.568 1.3137 3.924 1.8287 2.75 1.0419 5.5 2.0714 8.238 3.1625 1.751.6954 3.382 1.6006 4.831 2.8267 2.304 1.9545 3.237 4.4009 2.7 7.3767-.363 1.9431-1.467 3.4144-3.091 4.5102-.293.1992-.598.3739-.916.5488-.257.1375-.415.3354-.535.6066-1.106 2.5517-3.045 4.1169-5.742 4.7441-2.219.5121-4.418.4962-6.588-.2566-1.972-.681-3.471-1.9557-4.484-3.7752-.262-.4762-.572-.7802-1.09-.9717-1.197-.4551-2.272-1.1078-3.202-1.9951-1.488-1.4221-2.193-3.1955-2.396-5.1945-.067-.6377.054-.7739.705-.7801 1.339-.025 2.691-.0379 4.03-.0383.664-.0063.714.0914.671.7793-.127 2.1617.041 4.2962.626 6.3898.216.7468.613 1.1236 1.376 1.3127 2.205.5315 4.431.8049 6.692.8448 2.335.0392 4.656-.0933 6.936-.6797.662-.1782 1.311-.3808 1.948-.6446.379-.1632.622-.4233.704-.8292.445-2.3489.374-4.6439-.863-6.7681-.549-.9646-1.355-1.7058-2.258-2.3356-1.422-.9931-3.026-1.6285-4.641-2.2392-2.725-1.0298-5.487-1.9611-8.176-3.0895-1.406-.5881-2.74-1.312-3.977-2.2087-1.299-.9451-2.318-2.1139-2.726-3.7182-.677-2.7066.39-5.442 2.858-6.95085.965-.58615 1.646-1.26781 2.202-2.26745.87-1.5796 2.298-2.61208 4.012-3.19308 2.217-.75764 4.465-.82811 6.731-.22359 2.254.59237 3.865 1.95198 4.855 4.04176.213.45218.499.71954.943.91174 1.32.55214 2.506 1.31425 3.499 2.36054 1.03 1.05823 1.595 2.32953 1.806 3.77613.079.5885-.03.7368-.632.7548-1.315.0248-2.642.0374-3.956.0377-.799.0075-.886-.1021-.82-.8884.168-1.7571-.057-3.4736-.418-5.20106-.167-.7718-.564-1.14858-1.315-1.33786-2.401-.60324-4.825-.9362-7.343-.8386z"/><path d="m145.586 3.78947c.614-.00584 1.216-.01156 1.831-.0174.688-.00654.762.05413.94.73989.536 2.10638 1.073 4.22503 1.609 6.33144 1.889 7.4335 3.766 14.8672 5.655 22.3008.306 1.2001.625 2.4002.894 3.6129.129.6003.402.8923 1.042.9967 1.526.2556 3.013.2537 4.533-.0553.54-.1156.771-.3388.889-.8555.53-2.3743 1.098-4.7367 1.653-7.099.92-3.9984 1.853-7.9847 2.773-11.9832 1.015-4.3922 2.018-8.78424 3.033-13.17642.035-.1722.082-.34452.118-.51672.082-.34451.302-.50619.658-.50958 1.315-.01249 2.642-.03738 3.956-.03761.566-.00537.653.14111.523.71931-.413 1.72258-.839 3.44527-1.265 5.16796-1.799 7.24766-3.598 14.49536-5.384 21.74286-.745 3.0516-2.506 5.2043-5.482 6.3129-.391.151-.635.3743-.717.7925-.129.615-.295 1.2304-.437 1.8455-.107.4184-.238.8248-.443 1.2073-.471.9006-1.216 1.3128-2.224 1.2979-1.008-.015-1.664-.5366-2.102-1.3795-.313-.6109-.467-1.2846-.645-1.9458-.026-.0979-.063-.1958-.077-.2939-.094-.8952-.565-1.3695-1.441-1.7049-2.491-.9339-4.069-2.7971-4.855-5.3062-.583-1.8604-1.043-3.7588-1.552-5.6322-1.936-7.1631-3.859-14.314-5.795-21.47701-.28-1.05307-.28-1.05307.801-1.07562.503-.00479 1.019-.0097 1.523-.01449z"/><path d="m245.391 17.8418c.09 9.4272-7.505 17.0246-17.358 17.1182-9.853.0937-17.665-7.3572-17.755-16.7843-.089-9.42713 7.505-17.0859 17.432-17.180284 9.927-.094381 17.591 7.357944 17.681 16.846384zm-3.735.0356c-.073-7.6596-6.112-13.51919-13.926-13.4449-7.814.0743-13.802 6.036-13.729 13.7078s6.111 13.3718 13.986 13.297c7.875-.0749 13.742-5.9618 13.669-13.5599zm-6.625 6.1764c.085 1.19.3 1.8263.872 2.5942l-3.661.0348c-.497-.6336-.653-1.4669-.725-2.5956l-.152-1.8277c-.154-1.9013-.663-2.5225-2.42-2.5058l-4.362.0415.067 6.9598-3.514.0334-.171-17.93359 7.814-.0743c3.944-.03749 6.418 1.76809 6.45 5.07009.016 1.6816-.669 3.3086-2.565 4.1736 1.48.6243 2.056 1.8096 2.146 3.4906l.233 2.5266zm-6.127-7.3196c1.683-.016 2.67-.9338 2.655-2.4191-.015-1.6203-1.005-2.3842-2.91-2.3661l-4.152.0394.045 4.7872z"/><path d="m43.9077 4.67028.3634 38.22402-10.2095.0971-.103-10.8388c-.0608-6.3952-.0627-11.7598.1494-17.8875-.6738 2.793-1.2891 5.2786-2.18 8.5034l-5.3362 20.2939-8.7106.0828-5.7334-20.1886c-.9397-3.2074-1.6144-5.6807-2.34119-8.4605.32849 6.1226.42869 11.4863.48949 17.8815l.103 10.8387-10.197196.097-.36342-38.22402 16.450716-.15641 3.7867 14.46193c.6638 2.6208 1.3912 5.4619 2.007 8.1936.5637-2.7429 1.2369-5.5974 1.8508-8.2303l3.511-14.53129 16.4507-.15641z"/><path d="m49.8295 4.614 10.75-.10221.3635 38.22401-10.7501.1022z"/><path d="m101.147 4.1261.364 38.224-11.34.1078-8.2501-13.5111c-2.0226-3.3689-3.7076-6.1395-5.3605-9.4015.2753 5.6934.3729 10.787.43 16.8017l.0593 6.2357-10.2095.097-.3634-38.22397 11.3398-.10781 8.2501 13.51108c1.5853 2.612 3.6585 6.1401 5.361 9.4507-.2753-5.6935-.3735-10.8485-.4307-16.8632l-.0591-6.22334z"/><path d="m138.329 13.3233-11.291.1073.273 28.6742-10.75.1022-.273-28.6742-11.29.1074-.091-9.56216 33.319-.31679.091 9.56215z"/><path d="m353.842 15.9637-.027-2.8601-2.863.0273.028 2.86z"/><path d="m350.953 13.1431-.028-2.86-2.862.0272.027 2.86z"/><path d="m356.744 18.7964-.027-2.8601-2.862.0273.027 2.86z"/><path d="m359.622 21.6293-.027-2.86-2.863.0272.027 2.8601z"/><path d="m356.799 24.5042-.028-2.86-2.862.0272.027 2.86z"/><path d="m353.951 27.4039-.027-2.8601-2.863.0272.027 2.8601z"/><path d="m351.116 30.2911-.028-2.86-2.862.0272.027 2.8601z"/><path d="m340.672 16.0889-.027-2.8601-2.863.0272.027 2.8601z"/><path d="m337.782 13.2683-.027-2.86-2.863.0272.028 2.86z"/><path d="m343.549 18.9218-.027-2.86-2.862.0272.027 2.86z"/><path d="m346.439 21.7546-.027-2.86-2.863.0272.028 2.8601z"/><path d="m343.604 24.6296-.027-2.86-2.863.0272.027 2.8601z"/><path d="m340.781 27.5291-.028-2.8601-2.862.0272.027 2.8601z"/><path d="m337.945 30.4163-.027-2.86-2.863.0272.028 2.86z"/><path d="m327.489 16.2142-.027-2.86-2.863.0272.028 2.8601z"/><path d="m324.612 13.3936-.027-2.8601-2.863.0272.027 2.8601z"/><path d="m330.379 19.0471-.027-2.8601-2.863.0272.027 2.8601z"/><path d="m333.269 21.8799-.027-2.8601-2.863.0273.027 2.86z"/><path d="m330.433 24.7549-.027-2.8601-2.863.0273.028 2.86z"/><path d="m327.598 27.6544-.027-2.86-2.863.0272.027 2.86z"/><path d="m324.775 30.5416-.027-2.8601-2.863.0272.027 2.8601z"/></g></svg>