<svg fill="none" height="69" viewBox="0 0 506 69" width="506" xmlns="http://www.w3.org/2000/svg"><g fill="#FF0000" stroke="#FF0000" stroke-miterlimit="10" stroke-width=".58815"><path d="m247.965 49.9622-11.845-45.57719h8.252l13.547 55.80849c-2.437-.6307-4.654-1.9182-6.409-3.7224-1.756-1.8042-2.982-4.0556-3.545-6.5089zm10.944 14.2671-.99-4.0358c3.36.8307 6.871.8307 10.231 0l-.99 4.0358c-.54 2.4228-1.703 4.0358-4.153 4.0358-2.451 0-3.468-1.5991-4.098-4.022zm22.698-59.83045h8.252l-11.768 45.57715c-.564 2.4533-1.79 4.7048-3.545 6.5089-1.756 1.8042-3.973 3.0918-6.41 3.7225z"/><path d="m296.684 22.2726v-17.87367h40.842v6.45867h-33.304v20.6357c-5.655-.63-7.538-3.4059-7.538-9.2207zm0 25.1215c0-4.8457 1.883-8.4316 7.538-9.3315v22.6986h34.183v6.4656h-41.721zm7.538-15.8801c.921.0775 1.845.1075 2.769.09h28.798v6.2786h-28.798c-.925.0098-1.85.0699-2.769.18z"/><path d="m407.595 46.3903h8.702c-.148 1.3097-.208 2.6279-.18 3.9457-.108 3.2557.474 6.4972 1.709 9.5114-6.257-2.2705-10.113-6.424-10.231-13.4571zm39.389 8.2515c0-8.1615-4.154-11.7681-12.115-14.8001l-12.114-4.6657c-7.801-3.0528-13.457-6.7286-13.457-13.1042 0-4.8457 2.693-8.2515 7.448-10.2244-.465 1.335-.699 2.7397-.692 4.1535 0 6.9985 3.773 9.6913 12.114 12.9172l12.115 4.7557c8.161 3.2328 13.457 7.8085 13.457 14.6271 0 4.9356-2.513 8.7914-7.539 11.1243.556-1.5326.831-3.1532.81-4.7834zm-16.51-51.31587c6.818 0 11.304 2.76896 13.367 8.43147-4.386-1.5066-9.001-2.2352-13.637-2.15284-5.386 0-9.962.69224-13.458 2.24284 1.731-4.84567 6.397-8.52147 13.755-8.52147zm-12.648 56.52147c4.154 1.433 9.152 2.0768 14.711 2.0768 5.558 0 10.231-.9 13.637-2.5129-1.793 5.1157-6.549 8.8815-14.177 8.8815-6.791-.0139-11.637-2.9767-14.143-8.4454zm27.275-39.8385c.055-2.8023-.372-5.5932-1.26-8.2515 5.745 2.1529 9.601 6.0087 9.781 11.5743h-8.646c.062-1.1699.152-2.2429.152-3.3228z"/><path d="m463.985 22.2726v-17.87367h40.842v6.45867h-33.303v20.6357c-5.656-.63-7.539-3.4059-7.539-9.2207zm0 25.1215c0-4.8457 1.883-8.4316 7.539-9.3315v22.6986h34.182v6.4656h-41.721zm7.539-15.8801c.92.0775 1.845.1075 2.768.09h28.832v6.2786h-28.797c-.925.0098-1.85.0699-2.769.18z"/><path d="m401.711 29.195c0 15.61-12.702 28.0773-29.011 28.0773-16.427 0-29.123-12.4603-29.123-28.0773 0-15.7277 12.696-28.195 29.123-28.195 16.309-.00692 29.011 12.4603 29.011 28.195zm-6.174 0c0-12.7026-9.906-22.48402-22.844-22.48402-13.049 0-22.955 9.78142-22.955 22.48402 0 12.5849 9.906 22.2486 22.955 22.2486 12.938-.0069 22.844-9.6706 22.844-22.2486zm-11.076 10.1344c-.025 1.5506.462 3.0662 1.384 4.3127h-6.057c-.817-1.0522-1.052-2.4506-1.17-4.3127l-.228-3.0251c-.236-3.1497-1.052-4.195-3.967-4.195h-7.199v11.5328h-5.829v-29.718h12.973c6.521 0 10.598 3.0321 10.598 8.5077 0 2.769-1.163 5.4756-4.313 6.874 2.451 1.0452 3.378 3.0251 3.496 5.8217zm-10.017-12.2111c2.769 0 4.43-1.516 4.43-3.9597 0-2.6789-1.633-3.9596-4.776-3.9596h-6.874v7.9193z"/><path d="m73.9345 4.1842v63.347h-16.8837v-17.9982c0-10.5913.09-19.4867.533-29.628-1.156 4.6242-2.2221 8.7153-3.7312 14.0525l-9.1653 33.546h-14.4124l-9.1653-33.546c-1.516-5.3372-2.5821-9.4283-3.7381-14.0525.443 10.1413.533 19.0367.533 29.628v17.9982h-16.9045v-63.347h27.2466l6.0502 24.0208c1.066 4.3611 2.2221 9.0753 3.2051 13.6164.976-4.5411 2.1321-9.2553 3.1981-13.6164l6.0502-24.0208z"/><path d="m83.0515 4.1842h17.7975v63.347h-17.7975z"/><path d="m167.325 4.1842v63.347h-18.773l-13.437-22.5117c-3.288-5.6071-6.05-10.2313-8.715-15.6585.353 9.4284.443 17.8806.443 27.8489v10.3213h-16.912v-63.347h18.774l13.436 22.5117c2.576 4.3542 5.961 10.2313 8.716 15.7416-.353-9.4284-.443-17.9983-.443-27.932v-10.3213z"/><path d="m228.713 20.0227h-18.691v47.5085h-17.784v-47.5085h-18.69v-15.8385h55.158z"/></g></svg>