<svg fill="none" height="665" viewBox="0 0 41 665" width="41" xmlns="http://www.w3.org/2000/svg" xmlns:xlink="http://www.w3.org/1999/xlink"><clipPath id="a"><path d="m0 0h41v665h-41z"/></clipPath><g clip-path="url(#a)" fill="#FF0000"><path d="m20.1931 402.797c-9.8572 0-15.74937-5.935-15.74937-15.444v-10.628h31.48657v10.628c0 9.522-5.88 15.444-15.7494 15.444zm0-3.895c7.6108 0 12.386-3.944 12.386-11.549v-6.905h-24.7719v6.905c0 7.617 4.7751 11.549 12.3859 11.549z"/><path d="m35.9303 411.655v3.723h-31.48657v-3.723z"/><path d="m20.1931 424.224c10.2132 0 16.4491 6.155 16.4491 14.559 0 6.193-3.2284 11.82-10.8392 13.417v-3.76c5.4871-1.412 7.4266-5.406 7.4266-9.644 0-6.377-4.8242-10.665-13.0488-10.665-8.2245 0-13.04876 4.288-13.04876 10.665 0 4.472 2.7006 9.079 8.75236 9.866v3.722c-8.22451-.798-12.16493-7.126-12.16493-13.588 0-8.404 6.23593-14.56 16.44913-14.56z"/><path d="m32.5791 481.196v-10.714h-28.13537v-3.845h28.13537v-10.714h3.3634v25.273z"/><path d="m35.9303 488.949v3.722h-31.48657v-3.722z"/><path d="m20.1931 501.518c9.7713 0 16.4491 5.934 16.4491 15.1 0 9.165-6.6778 15.087-16.4491 15.087-9.7712 0-16.44908-5.934-16.44908-15.087 0-9.154 6.67788-15.1 16.44908-15.1zm0 26.292c8.0036 0 13.0488-4.423 13.0488-11.192 0-6.77-5.0452-11.193-13.0488-11.193s-13.04878 4.423-13.04878 11.193c0 6.769 5.04518 11.192 13.04878 11.192z"/><path d="m35.9303 565.616h-31.48657v-4.509l16.22817-10.444c3.4003-2.175 7.6107-4.829 10.6551-6.549-6.1869.136-12.03.136-16.2773.136h-10.60597v-3.674h31.48657v4.509l-16.2282 10.443c-3.4003 2.175-7.6108 4.829-10.65508 6.549 6.18678-.135 12.02998-.135 16.27728-.135h10.6182v3.674z"/><path d="m13.6012 594.575v-14.339l-9.15747-3.624v-3.895l31.48657 12.569v4.165l-31.48657 12.753v-3.944l9.15747-3.673zm3.3635-1.327.3928-.172c3.4003-1.376 9.6853-3.846 14.5464-5.75-4.8611-1.819-11.1461-4.252-14.5955-5.628l-.356-.135v11.685z"/><path d="m4.44373 633.879v-3.846c1.01886-.713 2.51646-.971 4.1982-1.02l3.36347-.135c4.3823-.172 5.8799-1.855 5.8799-5.627v-10.271h-13.44157v-3.723h31.48657v13.318c0 6.193-2.9584 10.665-8.5806 10.665-4.1614 0-6.6287-2.212-7.6108-5.173-.8838 2.74-2.9215 4.116-6.1868 4.337l-5.08203.308c-1.41167.086-2.92155.393-4.02634 1.154zm22.68507-4.472c3.7562 0 5.438-2.703 5.438-6.819v-9.608h-11.318v10.05c0 3.673 1.9027 6.377 5.88 6.377z"/><path d="m35.9303 665-18.8429-12.041h-12.64367v-3.722h12.65597l18.8428-12.041v4.251l-7.3898 4.644c-2.7006 1.72-5.4012 3.404-8.1386 5.05 2.7374 1.634 5.4871 3.317 8.1877 5.05l7.3407 4.607v4.202z"/><path d="m.662872 194.862c0-3.883 0-7.753 0-11.635 0-1.106 0-1.118 1.092518-1.118h10.86381c.8715 0 1.7185.11 2.541.368 1.5344.492 2.5655 1.487 3.0566 3.023.0491.172.1104.344.1595.503.2087.652.2087.664.9084.664h2.4306c.4296 0 .6751-.135.7242-.577.0123-.123.0614-.246.0859-.369.4911-2.064 1.6327-3.133 3.7318-3.465.626-.098 1.2521-.16 1.8904-.16h9.7958.3805c.5647.037.6506.123.6752.688v.529 22.508c0 .844-.4133 1.266-1.2398 1.266-.712 0-1.4117 0-2.1237 0-.6997 0-.7611-.086-.7856-.799 0-.233 0-.454 0-.688 0-5.885 0-11.758 0-17.643 0-.737-.356-1.106-1.068-1.106-3.4125 0-6.8374 0-10.25 0-.1718 0-.356 0-.5278 0-.3928 0-.5401.197-.5401.565v.983 16.427c0 .852-.4379 1.282-1.3135 1.29-.6383 0-1.2644 0-1.9027 0-.6506-.024-.7488-.123-.7734-.749 0-.258 0-.504 0-.762 0-5.48 0-10.947 0-16.427 0-1.486.0246-1.314-1.3257-1.314-3.6704 0-7.34072 0-11.01108 0-.12275 0-.25778 0-.38054 0-.90838 0-.93293.024-.93293.933v18.553c0 .876-.42964 1.314-1.28892 1.314-.68743 0-1.36258 0-2.05 0-.699703-.012-.785631-.098-.785631-.811 0-2.15 0-4.312 0-6.462 0-1.855 0-3.698 0-5.554z"/><path d="m.662872 295.881c0-3.748 0-7.507 0-11.255 0-.172 0-.356 0-.528 0-.897.061377-.946.945208-.946h11.24432c.6138 0 1.2153.086 1.8045.221 1.8167.43 3.0566 1.499 3.609 3.33.3069 1.007.0859 1.032 1.3994 1.019.6874 0 1.3625-.012 2.05 0 .4296 0 .6506-.159.7119-.589.0737-.48.2087-.934.4051-1.389.4788-1.118 1.289-1.867 2.4551-2.211.8102-.246 1.6327-.381 2.4674-.381h10.3236c.8348 0 .8961.074.8961.921v23.123c0 .148 0 .307-.0122.455-.0246.295-.1596.479-.4788.479-1.0679 0-2.1236 0-3.1916 0-.3192 0-.4419-.209-.4542-.504 0-.258-.0123-.503-.0123-.761 0-5.836 0-11.66 0-17.496 0-.209 0-.406 0-.615 0-.823-.0368-.847-.8592-.86-3.5476 0-7.083 0-10.6306 0-.8838 0-.8961 0-.8961.897v16.968.762c0 .38-.1841.565-.5524.565-.9575 0-1.9272 0-2.8847 0-.3437 0-.5156-.172-.5279-.504-.0122-.258-.0122-.504-.0122-.762 0-5.295 0-10.603 0-15.898 0-.48-.0123-.959-.0246-1.45 0-.369-.1596-.578-.5524-.565-.1473 0-.3069 0-.4542 0-3.879 0-7.74577 0-11.62482 0-1.00658 0-1.01886 0-1.01886 1.019v18.479c0 .868-.43373 1.302-1.3012 1.302-.66287 0-1.31347 0-1.97634 0-.785631-.012-.847008-.073-.859283-.884 0-2.433 0-4.866 0-7.298 0-1.548 0-3.096 0-4.644z"/><path d="m35.5988 261.712c.0737-2.199-.1964-4.411-.7979-6.573-.4174-1.487-.6383-1.671-2.1973-1.769-.712-.05-1.4117-.05-2.1237.049-2.0131.27-3.4248 1.4-4.4682 3.084-.7611 1.228-1.338 2.555-1.8659 3.907-1.068 2.74-2.1236 5.479-3.2407 8.207-.712 1.745-1.6326 3.366-2.8725 4.804-1.9763 2.285-4.4314 3.194-7.4021 2.629-1.93948-.381-3.40026-1.499-4.4805-3.133-.19641-.295-.36826-.602-.54012-.921-.13503-.258-.33144-.418-.6015-.541-2.54101-1.13-4.087721-3.084-4.689219-5.787-.491018-2.224-.454191-4.423.319162-6.585.699697-1.966 1.988627-3.453 3.817667-4.448.47874-.258.78563-.565.98203-1.081.46647-1.192 1.12935-2.261 2.02545-3.182 1.43623-1.475 3.21613-2.163 5.21703-2.347.6384-.061.7734.061.7734.713.0123 1.339.0123 2.69 0 4.03 0 .663-.0982.712-.7856.663-2.1605-.147-4.29644 0-6.39555.565-.7488.209-1.12934.602-1.32574 1.364-.5524 2.199-.84701 4.423-.90839 6.684-.06137 2.334.0491 4.656.61378 6.942.17185.663.36826 1.314.62604 1.953.15958.381.41737.627.82246.713 2.34461.467 4.6401.417 6.776-.799.9698-.54 1.7186-1.339 2.3569-2.236 1.0066-1.413 1.6572-3.01 2.2833-4.62 1.0557-2.715 2.0131-5.467 3.167-8.146.6015-1.4 1.3381-2.727 2.2464-3.956.9575-1.29 2.136-2.297 3.7441-2.69 2.7128-.652 5.438.442 6.9233 2.924.577.97 1.2521 1.658 2.2464 2.224 1.5713.884 2.5901 2.322 3.1548 4.042.7365 2.224.7856 4.472.1596 6.733-.6138 2.248-1.9886 3.845-4.0877 4.816-.4542.209-.7243.491-.9207.934-.5647 1.314-1.338 2.494-2.3937 3.477-1.068 1.02-2.3446 1.572-3.7931 1.769-.5892.074-.7366-.037-.7488-.639-.0123-1.315-.0123-2.641 0-3.956 0-.799.1105-.885.8961-.811 1.7554.184 3.4739-.025 5.2048-.369.7733-.159 1.1539-.552 1.3503-1.302.626-2.396.982-4.816.9084-7.335z"/><path d="m38.9868 145.753v1.831c0 .688-.0614.762-.7488.934-2.1114.516-4.235 1.032-6.3464 1.548-7.4512 1.818-14.9024 3.624-22.35358 5.443-1.20299.295-2.40599.602-3.62125.86-.6015.123-.89611.393-1.00659 1.032-.27006 1.523-.28234 3.01.01227 4.533.11048.541.33144.774.84701.897 2.36916.553 4.72604 1.143 7.08294 1.72 3.9895.959 7.9668 1.929 11.9563 2.888 4.3823 1.056 8.7647 2.101 13.147 3.157.1718.037.3437.086.5156.123.3437.086.5032.307.5032.664 0 1.314.0123 2.641 0 3.956 0 .565-.1473.651-.7242.516-1.7186-.43-3.4371-.872-5.1557-1.315-7.2302-1.867-14.4605-3.735-21.6907-5.59-3.04432-.774-5.18025-2.556-6.26049-5.541-.1473-.393-.36826-.639-.78563-.725-.61377-.135-1.22754-.307-1.84131-.455-.41737-.11-.82246-.245-1.203-.454-.896106-.479-1.3011959-1.229-1.276645-2.236.0245509-1.008.552395-1.659 1.399405-2.089.61377-.307 1.28892-.455 1.95179-.627.09821-.024.19641-.061.29461-.073.89611-.086 1.37485-.553 1.71857-1.426.95748-2.481 2.83562-4.042 5.3521-4.804 1.8659-.565 3.7686-1.007 5.6467-1.499 7.1811-1.867 14.35-3.722 21.5311-5.59 1.0557-.27 1.0557-.27 1.068.811v1.524z"/><path d="m23.9862 245.42c-9.4275 0-16.95237-7.666-16.95237-17.52s7.52487-17.594 16.95237-17.594c9.4276 0 17.0138 7.667 17.0138 17.594s-7.5249 17.52-17.0138 17.52zm0-3.735c7.6599 0 13.5767-5.983 13.5767-13.797s-5.9045-13.859-13.5767-13.859c-7.6721 0-13.4293 5.983-13.4293 13.859 0 7.875 5.8308 13.797 13.4293 13.797zm-6.1132-6.683c-1.1907.073-1.829.282-2.6023.847v-3.661c.6383-.492 1.473-.639 2.6023-.7l1.8291-.136c1.9027-.135 2.5287-.638 2.5287-2.395v-4.362h-6.9601v-3.514h17.9344v7.814c0 3.944-1.8291 6.401-5.1312 6.401-1.6817 0-3.302-.7-4.1491-2.604-.6383 1.474-1.829 2.039-3.5107 2.113l-2.5288.209zm7.3776-6.058c0 1.684.9084 2.679 2.3937 2.679 1.6204 0 2.3937-.983 2.3937-2.888v-4.152h-4.7874z"/><path d="m39.0728 44.0712h-38.225792v-10.21h10.839192c6.3955 0 11.7599.0492 17.8854.3195-2.7866-.7003-5.2662-1.3392-8.4824-2.2607l-20.242192-5.5289v-8.711l20.242192-5.5412c3.2162-.9092 5.6958-1.5603 8.4824-2.26066-6.1255.27026-11.4899.31946-17.8854.31946h-10.839192v-10.1977h38.225792v16.4515l-14.4974 3.649c-2.6269.6389-5.4748 1.3392-8.2122 1.929 2.7374.5897 5.5853 1.29 8.2122 1.9289l14.4974 3.6491v16.4514z"/><path d="m39.0728 49.9933v10.7506h-38.225792v-10.7506z"/><path d="m39.0728 101.313h-38.225792v-11.3398l13.588892-8.1213c3.3881-1.9904 6.1746-3.6491 9.4521-5.2709-5.6958.2212-10.7901.2703-16.80506.2703h-6.235932v-10.2099h38.225792v11.3403l-13.589 8.1213c-2.6269 1.5603-6.1745 3.5999-9.5012 5.2708 5.6958-.2211 10.8515-.2703 16.8665-.2703h6.2237z"/><path d="m29.5225 138.406v-11.291h-28.675492v-10.751h28.675492v-11.291h9.5625v33.321h-9.5625z"/><path d="m24.8332 353.885h2.8602v-2.863h-2.8602z"/><path d="m27.6811 351.022h2.8602v-2.863h-2.8602z"/><path d="m21.9731 356.76h2.8601v-2.863h-2.8601z"/><path d="m19.1129 359.61h2.8602v-2.863h-2.8602z"/><path d="m16.265 356.76h2.8602v-2.863h-2.8602z"/><path d="m13.3925 353.885h2.8602v-2.863h-2.8602z"/><path d="m10.5323 351.022h2.8602v-2.863h-2.8602z"/><path d="m24.8332 340.714h2.8602v-2.863h-2.8602z"/><path d="m27.6811 337.851h2.8602v-2.863h-2.8602z"/><path d="m21.9731 343.564h2.8601v-2.863h-2.8601z"/><path d="m19.1129 346.427h2.8602v-2.863h-2.8602z"/><path d="m16.265 343.564h2.8602v-2.863h-2.8602z"/><path d="m13.3925 340.714h2.8602v-2.863h-2.8602z"/><path d="m10.5323 337.851h2.8602v-2.863h-2.8602z"/><path d="m24.8332 327.53h2.8602v-2.863h-2.8602z"/><path d="m27.6811 324.68h2.8602v-2.863h-2.8602z"/><path d="m21.9731 330.393h2.8601v-2.863h-2.8601z"/><path d="m19.1129 333.256h2.8602v-2.863h-2.8602z"/><path d="m16.265 330.393h2.8602v-2.863h-2.8602z"/><path d="m13.3925 327.53h2.8602v-2.863h-2.8602z"/><path d="m10.5323 324.68h2.8602v-2.863h-2.8602z"/></g></svg>