<?xml version="1.0" encoding="utf-8"?>
<!-- Generator: Adobe Illustrator 26.3.1, SVG Export Plug-In . SVG Version: 6.00 Build 0)  -->
<svg version="1.1" id="Layer_1" xmlns="http://www.w3.org/2000/svg" xmlns:xlink="http://www.w3.org/1999/xlink" x="0px" y="0px"
	 viewBox="0 0 175.9 94.3" style="enable-background:new 0 0 175.9 94.3;" xml:space="preserve">
<style type="text/css">
	.st0{fill:#FF0000;}
</style>
<rect y="0" class="st0" width="13.5" height="13.5"/>
<rect x="13.5" y="13.5" class="st0" width="13.5" height="13.5"/>
<rect x="26.9" y="26.9" class="st0" width="13.5" height="13.5"/>
<rect y="80.8" class="st0" width="13.5" height="13.5"/>
<rect x="13.5" y="67.3" class="st0" width="13.5" height="13.5"/>
<rect x="26.9" y="53.9" class="st0" width="13.5" height="13.5"/>
<rect x="40.4" y="40.4" class="st0" width="13.5" height="13.5"/>
<rect x="61" y="0" class="st0" width="13.5" height="13.5"/>
<rect x="74.5" y="13.5" class="st0" width="13.5" height="13.5"/>
<rect x="88" y="26.9" class="st0" width="13.5" height="13.5"/>
<rect x="61" y="80.8" class="st0" width="13.5" height="13.5"/>
<rect x="74.5" y="67.3" class="st0" width="13.5" height="13.5"/>
<rect x="88" y="53.9" class="st0" width="13.5" height="13.5"/>
<rect x="101.4" y="40.4" class="st0" width="13.5" height="13.5"/>
<rect x="122" y="0" class="st0" width="13.5" height="13.5"/>
<rect x="135.5" y="13.5" class="st0" width="13.5" height="13.5"/>
<rect x="149" y="26.9" class="st0" width="13.5" height="13.5"/>
<rect x="122" y="80.8" class="st0" width="13.5" height="13.5"/>
<rect x="135.5" y="67.3" class="st0" width="13.5" height="13.5"/>
<rect x="149" y="53.9" class="st0" width="13.5" height="13.5"/>
<rect x="162.4" y="40.4" class="st0" width="13.5" height="13.5"/>
</svg>
