<svg fill="none" height="66" viewBox="0 0 339 66" width="339" xmlns="http://www.w3.org/2000/svg"><g fill="#FF0000" stroke="#FF0000" stroke-miterlimit="10" stroke-width=".58815"><path d="m247.965 46.9622-11.845-45.57719h8.252l13.547 55.80849c-2.437-.6307-4.654-1.9182-6.409-3.7224-1.756-1.8042-2.982-4.0556-3.545-6.5089zm10.944 14.2671-.99-4.0358c3.36.8307 6.871.8307 10.231 0l-.99 4.0358c-.54 2.4228-1.703 4.0358-4.153 4.0358-2.451 0-3.468-1.5991-4.098-4.022zm22.698-59.83045h8.252l-11.768 45.57715c-.564 2.4533-1.79 4.7048-3.545 6.5089-1.756 1.8042-3.973 3.0918-6.41 3.7225z"/><path d="m296.684 19.2726v-17.87367h40.842v6.45862h-33.304v20.63575c-5.655-.63-7.538-3.4059-7.538-9.2207zm0 25.1215c0-4.8457 1.883-8.4316 7.538-9.3315v22.6986h34.183v6.4656h-41.721zm7.538-15.8801c.921.0775 1.845.1075 2.769.09h28.798v6.2786h-28.798c-.925.0098-1.85.0699-2.769.18z"/><path d="m73.9345 1.1842v63.347h-16.8837v-17.9982c0-10.5913.09-19.4867.533-29.628-1.156 4.6242-2.2221 8.7153-3.7312 14.0525l-9.1653 33.546h-14.4124l-9.1653-33.546c-1.516-5.3372-2.5821-9.4283-3.7381-14.0525.443 10.1413.533 19.0367.533 29.628v17.9982h-16.9045v-63.347h27.2466l6.0502 24.0208c1.066 4.3611 2.2221 9.0753 3.2051 13.6164.976-4.5411 2.1321-9.2553 3.1981-13.6164l6.0502-24.0208z"/><path d="m83.0515 1.1842h17.7975v63.347h-17.7975z"/><path d="m167.325 1.1842v63.347h-18.773l-13.437-22.5117c-3.288-5.6071-6.05-10.2313-8.715-15.6585.353 9.4284.443 17.8806.443 27.8489v10.3213h-16.912v-63.347h18.774l13.436 22.5117c2.576 4.3542 5.961 10.2313 8.716 15.7416-.353-9.4284-.443-17.9983-.443-27.932v-10.3213z"/><path d="m228.713 17.0227h-18.691v47.5085h-17.784v-47.5085h-18.69v-15.8385h55.158z"/></g></svg>