<svg width="122" height="122" viewBox="0 0 122 122" fill="none" xmlns="http://www.w3.org/2000/svg">
<circle cx="61" cy="61" r="61" fill="black"/>
<path d="M61 0C27.3178 0 0 27.3178 0 61C0 94.6822 27.3178 122 61 122C94.6822 122 122 94.6822 122 61C122 27.3178 94.6974 0 61 0ZM30.0933 63.0486L30.3526 62.6368L46.2278 37.8098C46.281 37.7282 46.3551 37.6624 46.4424 37.6192C46.5297 37.576 46.627 37.5571 46.7242 37.5644C46.8213 37.5716 46.9147 37.6048 46.9946 37.6605C47.0745 37.7162 47.138 37.7924 47.1784 37.881C49.8218 43.8234 52.1194 51.2146 51.0418 55.815C50.5944 57.706 49.3388 60.268 47.9206 62.6368C47.7386 62.9834 47.5402 63.3209 47.3258 63.6484C47.2745 63.7215 47.2058 63.7806 47.126 63.8205C47.0461 63.8605 46.9576 63.8799 46.8683 63.8772H30.5661C30.4688 63.8787 30.3729 63.8538 30.2886 63.8052C30.2043 63.7566 30.1347 63.686 30.0873 63.6011C30.0398 63.5161 30.0163 63.4199 30.0192 63.3226C30.022 63.2253 30.0512 63.1306 30.1035 63.0486H30.0933ZM100.823 71.5886C100.824 71.6971 100.793 71.8036 100.735 71.8949C100.676 71.9862 100.592 72.0582 100.492 72.102C99.2572 72.6256 95.0533 74.5674 93.3046 76.9922C88.8414 83.204 85.4356 92.0897 77.8106 92.0897H46.0194C43.3352 92.0857 40.6782 91.5528 38.2 90.5214C35.7219 89.4901 33.4713 87.9805 31.5768 86.0789C29.6824 84.1774 28.1812 81.9212 27.1591 79.4392C26.137 76.9572 25.614 74.2982 25.62 71.614V71.248C25.62 70.9532 25.864 70.7092 26.169 70.7092H43.8844C44.2403 70.7092 44.4944 71.0294 44.469 71.3802C44.3368 72.529 44.5554 73.7134 45.1044 74.786C46.1516 76.921 48.3374 78.2528 50.691 78.2528H59.4648V71.4056H50.7825C50.6808 71.4045 50.5812 71.3757 50.4947 71.3222C50.4081 71.2688 50.3378 71.1927 50.2912 71.1023C50.2447 71.0118 50.2237 70.9103 50.2305 70.8088C50.2374 70.7073 50.2718 70.6096 50.3301 70.5262L50.6503 70.0687C51.4637 68.8944 52.6379 67.0898 53.8071 65.026C54.6001 63.6332 55.3728 62.1488 55.9929 60.6543C56.1149 60.39 56.2115 60.1104 56.3233 59.841C56.4911 59.3632 56.6639 58.9158 56.7859 58.4736C56.9056 58.0986 57.0158 57.7206 57.1163 57.34C57.4061 56.0692 57.5281 54.7272 57.5281 53.3394C57.5281 52.7904 57.5078 52.216 57.4569 51.6772C57.4315 51.0824 57.3553 50.4826 57.2841 49.8878C57.2272 49.3557 57.1458 48.8265 57.0401 48.3018C56.9033 47.503 56.7371 46.7095 56.5419 45.9228L56.4708 45.6178C56.3183 45.0688 56.1861 44.5503 56.0133 44.0064C55.5292 42.3361 54.9729 40.6875 54.3459 39.0654C54.1275 38.4553 53.8867 37.8533 53.6241 37.2608C53.2581 36.356 52.8819 35.5376 52.5413 34.77C52.3719 34.4412 52.2125 34.1072 52.0635 33.7686C51.8982 33.4033 51.7236 33.0423 51.5399 32.6858C51.4179 32.4164 51.2705 32.1572 51.1739 31.9132L50.1013 29.9408C49.9539 29.6714 50.1979 29.341 50.4927 29.4274L57.2028 31.2422H57.2536L58.133 31.4963L59.109 31.7708L59.4648 31.8674V27.8872C59.4648 25.9606 61 24.4 62.9164 24.4C63.3689 24.3988 63.817 24.4891 64.2337 24.6656C64.6504 24.8421 65.0271 25.101 65.3412 25.4268C65.9902 26.0815 66.3554 26.9653 66.3578 27.8872V33.8042L67.0746 34.0024C67.1254 34.0278 67.1864 34.0533 67.2322 34.0888C67.405 34.2108 67.6592 34.404 67.9794 34.648C68.2336 34.8412 68.503 35.0852 68.8182 35.3444C69.822 36.1622 70.7952 37.0168 71.736 37.9064C72.8238 38.918 74.0438 40.1024 75.213 41.419C75.5434 41.7952 75.8586 42.1612 76.189 42.5678C76.5042 42.9694 76.86 43.3608 77.1548 43.7472C77.5564 44.2758 77.9682 44.8248 78.3494 45.3942C78.5172 45.6636 78.7256 45.9432 78.8832 46.2126C79.3712 46.9344 79.788 47.6766 80.1896 48.4238C80.3624 48.7644 80.5302 49.1406 80.6776 49.5066C81.13 50.508 81.4858 51.5196 81.7044 52.5464C81.7767 52.7644 81.8261 52.9892 81.8518 53.2174V53.2683C81.923 53.558 81.9484 53.8783 81.9738 54.2036C82.117 55.7061 81.9332 57.2217 81.435 58.6464C81.2774 59.0734 81.13 59.5106 80.9368 59.9376C80.5556 60.8018 80.1184 61.6812 79.5948 62.4894C79.422 62.7944 79.2136 63.1096 79.0204 63.4146C78.8018 63.7348 78.568 64.0398 78.3748 64.3296C78.0953 64.7145 77.802 65.0892 77.4954 65.453C77.226 65.819 76.9566 66.185 76.6516 66.5154C76.2398 67.0136 75.8383 67.4813 75.4062 67.9286C75.1622 68.2234 74.8978 68.5284 74.6132 68.7928C74.3488 69.0978 74.0642 69.3672 73.8202 69.6112C73.3932 70.0382 73.0577 70.3584 72.7628 70.638L72.0664 71.2582C71.9694 71.3555 71.8378 71.4103 71.7004 71.4107H66.3578V78.2528H73.078C74.5776 78.2528 76.006 77.7242 77.165 76.738C77.5564 76.3974 79.2746 74.908 81.313 72.6612C81.3794 72.5847 81.4684 72.5313 81.5672 72.5087L100.121 67.1356C100.203 67.112 100.289 67.1077 100.372 67.1228C100.455 67.138 100.534 67.1723 100.602 67.223C100.67 67.2737 100.725 67.3395 100.764 67.4152C100.802 67.4909 100.822 67.5744 100.823 67.6592V71.5886Z" fill="#FF0000"/>
</svg>
