<svg fill="none" height="109" viewBox="0 0 117 109" width="117" xmlns="http://www.w3.org/2000/svg" xmlns:xlink="http://www.w3.org/1999/xlink"><clipPath id="a"><path d="m27 24h67v60h-67z"/></clipPath><g clip-path="url(#a)" fill="#FF0000"><path d="m32.3657 58.8181c2.0702-.0141 4.1474 0 6.2176 0h6.2177c.6196 0 1.2322-.0281 1.5914-.6457 1.6266-2.7863 3.3588-5.5305 3.225-8.9555-.1761-4.4636-1.6759-8.5624-3.394-12.6049-.3944-.9265-.838-.6317-1.2605.028-4.4502 6.9623-8.9004 13.9315-13.3718 20.8797-.676 1.0457-.2746 1.3124.7746 1.3054z"/><path d="m92.1971 62.5937c-4.1756 1.1932-8.3301 2.4775-12.5339 3.5794-1.8871.4913-3.4504 1.3195-4.6967 2.8074-1.9012 2.2809-4.2812 3.2775-7.3443 3.0951-5.2952-.3159-4.5347 1.1089-4.5981-5.0112-.0141-1.0808.4506-1.5791 1.5421-1.551.859.0281 1.7181-.0211 2.5772 0 .7464.014 1.366-.2106 1.9153-.7369 2.4152-2.3161 4.6051-4.8076 6.3162-7.6992 2.0843-3.5232 2.3167-7.1096.5492-10.8153-2.6828-5.6217-7.0274-9.7976-11.886-13.5103-.676-.5194-1.0351-1.0177-1.0281-1.8529.0211-1.4107.0352-2.8284-.0422-4.2321-.0634-1.5089-1.345-2.695-2.7533-2.6669-1.4224.028-2.6757 1.2141-2.7884 2.695-.0563.751-.0563 1.516-.0211 2.2669.0563 1.2563-.3239 1.7616-1.697 1.3405-2.1125-.6456-4.2602-1.151-6.7599-1.8107.3943.8001.5845 1.2072.7816 1.6072 1.9576 3.8812 3.5771 7.8887 4.8023 12.0646 1.8942 6.4569 1.2886 12.5418-2.4011 18.2548-.7676 1.1861-1.4858 2.4002-2.2322 3.6004-.7605 1.2282-.6549 1.4598.7605 1.4879 1.6688.0351 3.3377.0421 5.0065 0 1.183-.0281 1.8097.3719 1.7322 1.6633-.0634 1.1089-.0493 2.2178 0 3.3267.0352 1.0668-.3521 1.5651-1.4928 1.5441-2.3237-.0492-4.6544.028-6.9781-.0281-2.711-.0632-5.1474-2.1827-5.3234-4.8637-.0986-1.5441-.7534-1.8178-2.0843-1.8038-4.0489.0562-8.0907.0211-12.1396.0211-2.3307 0-2.556.2527-2.2955 2.5056 1.0774 9.2151 8.5695 16.0088 17.8925 16.079 9.4075.0702 18.822-.014 28.2294.0421 2.6054.0141 4.7249-.9194 6.5416-2.674 1.8308-1.7686 3.218-3.8811 4.5206-6.0428 1.9928-3.2986 3.9151-6.6815 7.7668-8.1764 1.6055-.6246 2.0984-1.6282 1.9294-3.2495-.1549-1.4738-.3098-1.6703-1.7674-1.2563z"/></g></svg>