<svg fill="none" height="58" viewBox="0 0 60 58" width="60" xmlns="http://www.w3.org/2000/svg"><path d="m59.1344 29.195c0 15.61-12.7026 28.0773-29.0118 28.0773-16.4269 0-29.1226-12.4603-29.1226-28.0773 0-15.7277 12.6957-28.195 29.1226-28.195 16.3092-.00692 29.0118 12.4603 29.0118 28.195zm-6.1748 0c0-12.7026-9.9059-22.48402-22.8439-22.48402-13.0488 0-22.95478 9.78142-22.95478 22.48402 0 12.5849 9.90598 22.2486 22.95478 22.2486 12.938-.0069 22.8439-9.6706 22.8439-22.2486zm-11.0758 10.1344c-.0247 1.5506.4619 3.0662 1.3845 4.3127h-6.0572c-.8168-1.0522-1.0522-2.4506-1.1698-4.3127l-.2285-3.0251c-.2354-3.1497-1.0522-4.195-3.9665-4.195h-7.1994v11.5328h-5.8286v-29.718h12.9726c6.5209 0 10.5982 3.0321 10.5982 8.5077 0 2.769-1.163 5.4756-4.3127 6.874 2.4506 1.0452 3.3782 3.0251 3.4959 5.8217zm-10.0168-12.2111c2.769 0 4.4304-1.516 4.4304-3.9597 0-2.6789-1.6337-3.9596-4.7765-3.9596h-6.874v7.9193z" fill="#FF0000" stroke="#FF0000" stroke-miterlimit="10" stroke-width=".58815"/></svg>