<svg fill="none" height="66" viewBox="0 0 99 66" width="99" xmlns="http://www.w3.org/2000/svg"><g fill="#FF0000" stroke="#FF0000" stroke-miterlimit="10" stroke-width=".58815"><path d="m.595032 43.3903h8.701478c-.14772 1.3097-.20785 2.6279-.17999 3.9457-.10786 3.2557.47489 6.4972 1.70988 9.5114-6.25788-2.2705-10.113687-6.424-10.231368-13.4571zm39.388568 8.2515c0-8.1615-4.1535-11.7681-12.1142-14.8001l-12.1143-4.6657c-7.80152-3.0528-13.45714-6.7286-13.45714-13.1042 0-4.8457 2.69278-8.2515 7.44848-10.22438-.46562 1.33498-.69973 2.73968-.69224 4.15348 0 6.9985 3.7727 9.6913 12.1142 12.9172l12.1143 4.7557c8.1615 3.2328 13.4571 7.8085 13.4571 14.6271 0 4.9356-2.5128 8.7914-7.5384 11.1243.556-1.5326.8304-3.1532.8099-4.7834zm-16.51-51.315872c6.8186 0 11.3043 2.768962 13.3672 8.431492-4.3856-1.50664-9.0007-2.23522-13.6372-2.15286-5.3856 0-9.9613.69224-13.45716 2.24286 1.73056-4.84569 6.39636-8.521492 13.75486-8.521492zm-12.6472 56.521472c4.1534 1.433 9.1514 2.0768 14.7101 2.0768s10.2313-.9 13.6371-2.5129c-1.7929 5.1157-6.5486 8.8815-14.1771 8.8815-6.7908-.0139-11.6365-2.9767-14.1424-8.4454zm27.2743-39.8385c.0549-2.8023-.3713-5.5932-1.2599-8.25148 5.7456 2.15288 9.6014 6.00868 9.7814 11.57428h-8.6461c.0623-1.1699.1522-2.2429.1522-3.3228z"/><path d="m56.985 19.2726v-17.87367h40.8423v6.45862h-33.3038v20.63575c-5.6556-.63-7.5385-3.4059-7.5385-9.2207zm0 25.1215c0-4.8457 1.8829-8.4316 7.5385-9.3315v22.6986h34.1829v6.4656h-41.7214zm7.5385-15.8801c.9209.0775 1.8451.1075 2.769.09h28.8319v6.2786h-28.7973c-.9255.0098-1.8499.0699-2.7689.18z"/></g></svg>